ply
format ascii 1.0
comment VCGLIB generated
element vertex 5
property double x
property double y
property double z
property uchar red
property uchar green
property uchar blue
property uchar alpha
element face 0
property list uchar int vertex_indices
property uchar red
property uchar green
property uchar blue
property uchar alpha
end_header
6.225194782524131 -16.74380986191343 -84.51581497121187 255 0 0 255
11.696005887508235 -14.72262545510048 -84.47699192674659 0 255 0 255
8.155517678110378 -12.296983077932083 -90.2576760585174 255 255 0 255
9.817333040851885 -18.403064863069453 -90.54700466391537 0 255 255 255
9.976529055082622 -17.314815878674604 -86.75075756836328 255 0 255 255
