ply
format ascii 1.0
comment VCGLIB generated
element vertex 5
property double x
property double y
property double z
property uchar red
property uchar green
property uchar blue
property uchar alpha
element face 0
property list uchar int vertex_indices
property uchar red
property uchar green
property uchar blue
property uchar alpha
end_header
12.43989749860417 -14.490737511331517 -84.955223833806 255 0 0 255
15.256157229904886 -10.039171344541966 -85.88526244654521 0 255 0 255
11.657645207216872 -10.139021403778507 -90.56273341805294 255 255 0 255
16.535540026325855 -15.345476633614364 -91.25732296070726 0 255 255 255
15.725995711511072 -14.449822273532954 -87.52658400661983 255 0 255 255
