ply
format ascii 1.0
comment VCGLIB generated
element vertex 7
property double x
property double y
property double z
property uchar red
property uchar green
property uchar blue
property uchar alpha
element face 0
property list uchar int vertex_indices
property uchar red
property uchar green
property uchar blue
property uchar alpha
end_header
-12.904499390796671 -9.577274982439068 -88.00723232277088 255 0 0 255
-15.85180763280714 -3.9437185534674652 -89.15151987249185 0 255 0 255
-15.534533266041883 -8.01436515745008 -86.57001442484622 0 0 255 255
-12.517706394193084 -4.666780959813147 -88.47961436982021 0 0 255 255
-11.250048286828452 -4.897406531524275 -91.11965429867445 255 255 0 255
-17.545805548197492 -10.164171436024109 -92.17509477182699 0 255 255 255
-17.47317300204942 -9.060890379421341 -89.26900076171947 255 0 255 255
