ply
format ascii 1.0
comment VCGLIB generated
element vertex 8
property double x
property double y
property double z
property uchar red
property uchar green
property uchar blue
property uchar alpha
element face 0
property list uchar int vertex_indices
property uchar red
property uchar green
property uchar blue
property uchar alpha
end_header
-22.626963945591207 13.081578344973764 -91.25228533756203 255 0 0 255
-24.16642659914984 21.92172329348209 -89.3600186134605 0 255 0 255
-21.35118029460708 20.64336546809316 -89.4463413139274 0 0 255 255
-24.934915248694423 15.568207467516093 -88.51246003940507 0 0 255 255
-20.957424056601244 15.764605054577752 -90.01468991048174 0 0 255 255
-25.844595899021293 19.76633111820153 -88.02636616286753 0 0 255 255
-19.856491980608062 18.8083047678167 -93.21534509710085 255 255 0 255
-27.818862089074088 15.582446220304561 -90.16507080190853 255 0 255 255
