ply
format ascii 1.0
comment VCGLIB generated
element vertex 7
property double x
property double y
property double z
property uchar red
property uchar green
property uchar blue
property uchar alpha
element face 0
property list uchar int vertex_indices
property uchar red
property uchar green
property uchar blue
property uchar alpha
end_header
14.490802206781376 -8.800727725033386 -88.32807891274541 255 0 0 255
18.6477679803248 -3.3519035517834723 -89.39439752986723 0 255 0 255
17.18805657276215 -6.192830915402888 -86.85389097634402 0 0 255 255
15.014449892303901 -4.492370724803006 -89.06470220753904 0 0 255 255
13.804096133141392 -4.559485579615039 -91.81816040082927 255 255 0 255
20.176857818486784 -9.53508859842131 -91.49528527316474 0 255 255 255
19.46256365893408 -8.418445684049502 -89.07402069885589 255 0 255 255
