ply
format ascii 1.0
comment VCGLIB generated
element vertex 10
property double x
property double y
property double z
property uchar red
property uchar green
property uchar blue
property uchar alpha
element face 0
property list uchar int vertex_indices
property uchar red
property uchar green
property uchar blue
property uchar alpha
end_header
21.183247349999043 4.242832145110455 -89.66140063846782 255 0 0 255
24.067070900887888 13.849848334333084 -90.10843816465838 0 255 0 255
20.367416440680653 12.374350852315114 -89.51371785388199 0 0 255 255
19.103224230505063 6.898822272746365 -89.05896765685804 0 0 255 255
25.77349867240308 9.293923899632127 -87.91917080190129 0 0 255 255
25.208503895241094 12.67632191619191 -88.62451597362846 0 0 255 255
24.501344530871094 5.533243089007456 -88.16303435123884 0 0 255 255
19.036030621369648 9.432754646844021 -92.94680260842406 255 255 0 255
28.800415557892073 6.522300432866435 -91.80115794389037 0 255 255 255
27.733993527941845 6.843835558456 -90.01415894499686 255 0 255 255
