ply
format ascii 1.0
comment VCGLIB generated
element vertex 10
property double x
property double y
property double z
property uchar red
property uchar green
property uchar blue
property uchar alpha
element face 0
property list uchar int vertex_indices
property uchar red
property uchar green
property uchar blue
property uchar alpha
end_header
-18.875165006833694 2.8729722349478717 -90.17846878482008 255 0 0 255
-21.875275697457102 12.80619882521072 -91.02262442531342 0 255 0 255
-17.400254367184395 5.979066592253845 -89.30908165633987 0 0 255 255
-18.61573963681151 11.341596343623532 -90.09917863513279 0 0 255 255
-23.248970838855954 8.566231663644299 -88.92011462678524 0 0 255 255
-21.495306674053296 4.706081862928329 -88.91314900586164 0 0 255 255
-23.42579808484259 11.77162880147368 -89.72841150418456 0 0 255 255
-16.473566170790242 9.390972465416738 -93.81598606984909 255 255 0 255
-26.02128949550327 5.616401902107294 -92.58819173641695 0 255 255 255
-24.888099914366585 5.563604936193313 -90.92226739233445 255 0 255 255
