ply
format ascii 1.0
comment VCGLIB generated
element vertex 5
property double x
property double y
property double z
property uchar red
property uchar green
property uchar blue
property uchar alpha
element face 0
property list uchar int vertex_indices
property uchar red
property uchar green
property uchar blue
property uchar alpha
end_header
1.4228051010090907 -17.4974567802855 -84.02839898277854 255 0 0 255
-3.225860030951181 -17.281511706160355 -84.35111657094652 0 255 0 255
-0.045093586955047726 -13.527900100781636 -90.1668390713321 255 255 0 255
-0.7931989405076052 -19.37090727327854 -91.26648889106846 0 255 255 255
-1.302077637417435 -18.989798432459644 -86.85952355304165 255 0 255 255
