ply
format ascii 1.0
comment VCGLIB generated
element vertex 5
property double x
property double y
property double z
property uchar red
property uchar green
property uchar blue
property uchar alpha
element face 0
property list uchar int vertex_indices
property uchar red
property uchar green
property uchar blue
property uchar alpha
end_header
-9.271841600476524 -14.829451315135913 -85.41165435163315 255 0 0 255
-11.439592438477442 -9.945925076052013 -86.16768037980326 0 255 0 255
-7.930054590746288 -9.844685299048564 -90.49344656175252 255 255 0 255
-12.809553488279299 -14.755020490591836 -90.8508291614319 0 255 255 255
-12.231171927509248 -14.109759962426978 -87.67091991960226 255 0 255 255
