ply
format ascii 1.0
comment VCGLIB generated
element vertex 8
property double x
property double y
property double z
property uchar red
property uchar green
property uchar blue
property uchar alpha
element face 0
property list uchar int vertex_indices
property uchar red
property uchar green
property uchar blue
property uchar alpha
end_header
19.5678074812447 -3.5150029301781007 -88.8926096116428 255 0 0 255
22.653852443404297 3.1295556911255002 -89.21674760515728 0 255 0 255
22.295760453741366 -2.150269338140692 -86.97257092601583 0 0 255 255
20.283620286542032 2.7434321733837788 -88.32872664539298 0 0 255 255
18.901639170792976 -1.2295950231506971 -87.81879234864627 0 0 255 255
17.55797776474514 1.1775035316645415 -91.44489330781366 255 255 0 255
24.926489987518316 -3.731666833314547 -92.38782811187478 0 255 255 255
24.48327188579932 -2.566346810296759 -89.43146354994215 255 0 255 255
