ply
format ascii 1.0
comment VCGLIB generated
element vertex 8
property double x
property double y
property double z
property uchar red
property uchar green
property uchar blue
property uchar alpha
element face 0
property list uchar int vertex_indices
property uchar red
property uchar green
property uchar blue
property uchar alpha
end_header
-16.28221915653025 -3.3905077385719364 -89.2578145645812 255 0 0 255
-19.54725039959696 2.3061194146490465 -90.0189598760556 0 255 0 255
-14.801586004578802 -1.8371773679223744 -88.670145306683 0 0 255 255
-19.82796474687332 -1.3046074186528989 -87.89297674158172 0 0 255 255
-16.56442918834614 2.273072106717615 -89.17710427453387 0 0 255 255
-14.024479781543093 1.1779568095365498 -92.15514883026302 255 255 0 255
-21.67150387821031 -3.7434951904667955 -93.00906649497915 0 255 255 255
-21.29920164735384 -2.969065347097523 -90.51125092006038 255 0 255 255
