ply
format ascii 1.0
comment VCGLIB generated
element vertex 9
property double x
property double y
property double z
property uchar red
property uchar green
property uchar blue
property uchar alpha
element face 0
property list uchar int vertex_indices
property uchar red
property uchar green
property uchar blue
property uchar alpha
end_header
23.79847038701956 14.731461126415544 -89.53468738861126 255 0 0 255
23.57289045893502 23.38530392695704 -89.15045309568119 0 255 0 255
21.282538882243266 16.537615374153866 -89.06215239645135 0 0 255 255
21.058755453497927 22.211848813473168 -89.52129825817636 0 0 255 255
25.171026435072427 17.162864449780102 -87.12042403291017 0 0 255 255
25.83104884148795 21.58454808724773 -86.99457204171904 0 0 255 255
20.334684491584838 20.304917607283603 -92.48936771826615 255 255 0 255
29.44331730879321 17.406328087985315 -89.09271343900173 0 255 255 255
27.805585964272776 17.119124448616848 -87.9378309195312 255 0 255 255
