ply
format ascii 1.0
comment VCGLIB generated
element vertex 5
property double x
property double y
property double z
property uchar red
property uchar green
property uchar blue
property uchar alpha
element face 0
property list uchar int vertex_indices
property uchar red
property uchar green
property uchar blue
property uchar alpha
end_header
-2.653578513345166 -15.869746832326419 -83.93436838819909 255 0 0 255
-7.580033736475257 -12.786065414477502 -84.94254864738781 0 255 0 255
-3.431221950990828 -11.581507558027226 -90.77334298359315 255 255 0 255
-6.0232950295837 -17.6256274920362 -90.15133134246537 0 255 255 255
-6.118468671481978 -16.367752340409183 -86.90176579000347 255 0 255 255
