ply
format ascii 1.0
comment VCGLIB generated
element vertex 10
property double x
property double y
property double z
property uchar red
property uchar green
property uchar blue
property uchar alpha
element face 0
property list uchar int vertex_indices
property uchar red
property uchar green
property uchar blue
property uchar alpha
end_header
-16.61962410594373 1.9076191770051816 -87.63145151815078 255 0 0 255
-19.257399342595747 9.679524884297194 -87.98663022099836 0 255 0 255
-20.644615741320777 8.989829473770277 -86.95542011872368 0 0 255 255
-20.67503174486792 6.198183722357823 -86.09279533493041 0 0 255 255
-19.076058945949693 2.5212175266019816 -85.99656314308048 0 0 255 255
-16.338365791917017 8.631003509279907 -87.88178309264232 0 0 255 255
-15.273091932388908 4.508499677226989 -87.07497895527806 0 0 255 255
-14.989959637604834 6.352212369788523 -92.22393056877885 255 255 0 255
-24.504339403989157 2.4841482060919837 -90.72041784705557 0 255 255 255
-22.59245854759169 3.524988620994783 -87.88724620842865 255 0 255 255
