ply
format ascii 1.0
comment VCGLIB generated
element vertex 7
property double x
property double y
property double z
property uchar red
property uchar green
property uchar blue
property uchar alpha
element face 0
property list uchar int vertex_indices
property uchar red
property uchar green
property uchar blue
property uchar alpha
end_header
-10.659674448740663 -10.486318484405743 -84.82938527561086 255 0 0 255
-13.453751806117879 -5.518261419195192 -85.7730297617368 0 255 0 255
-13.419430478601054 -8.328757485906424 -82.9171530930081 0 0 255 255
-10.462107148676271 -7.218208867815169 -84.67257842541422 0 0 255 255
-9.806053579476295 -6.360264235731821 -88.20190570569925 255 255 0 255
-15.136444614953376 -11.332340622485155 -89.97348362631013 0 255 255 255
-15.192334995641161 -10.542356347086105 -85.71025406766334 255 0 255 255
