ply
format ascii 1.0
comment VCGLIB generated
element vertex 5
property double x
property double y
property double z
property uchar red
property uchar green
property uchar blue
property uchar alpha
element face 0
property list uchar int vertex_indices
property uchar red
property uchar green
property uchar blue
property uchar alpha
end_header
10.89912487855013 -15.301233802599793 -80.70843118227418 255 0 0 255
15.446323270751826 -14.915478429656257 -82.23130343302975 0 255 0 255
11.366919892244507 -12.172446799776793 -87.27681976810149 255 255 0 255
12.042738967202517 -17.92135166183172 -87.95712573058618 0 255 255 255
13.01008106678325 -17.137610951306456 -83.77356158641004 255 0 255 255
