ply
format ascii 1.0
comment VCGLIB generated
element vertex 5
property double x
property double y
property double z
property uchar red
property uchar green
property uchar blue
property uchar alpha
element face 0
property list uchar int vertex_indices
property uchar red
property uchar green
property uchar blue
property uchar alpha
end_header
15.94794230075473 -13.891312055641087 -82.49214449851333 255 0 0 255
17.437018287630217 -9.100393415253548 -84.33136914035407 0 255 0 255
13.539397493985284 -10.019174368605473 -88.19591059591843 255 255 0 255
18.687268058163752 -13.416595023334253 -89.89048652745706 0 255 255 255
18.435126223198182 -13.39153908109374 -84.84353481820264 255 0 255 255
