ply
format ascii 1.0
comment VCGLIB generated
element vertex 9
property double x
property double y
property double z
property uchar red
property uchar green
property uchar blue
property uchar alpha
element face 0
property list uchar int vertex_indices
property uchar red
property uchar green
property uchar blue
property uchar alpha
end_header
23.817918838215377 14.985267606721784 -90.94640630815957 255 0 0 255
24.2280594559862 22.93821705031696 -89.87749829499488 0 255 0 255
21.235778195837113 17.53623311234341 -90.57109440508148 0 0 255 255
25.061746782666717 16.970513795802383 -88.467837353983 0 0 255 255
25.71520016989222 21.838815667088234 -87.91673591971522 0 0 255 255
21.49457550583584 22.103088099394697 -90.50748592593672 0 0 255 255
20.46078274423413 19.65057517281953 -93.64476841316257 255 255 0 255
30.682055756808346 18.531079177818995 -91.58964261489395 0 255 255 255
29.2538382487009 18.37044257021366 -90.00100097111272 255 0 255 255
