ply
format ascii 1.0
comment VCGLIB generated
element vertex 7
property double x
property double y
property double z
property uchar red
property uchar green
property uchar blue
property uchar alpha
element face 0
property list uchar int vertex_indices
property uchar red
property uchar green
property uchar blue
property uchar alpha
end_header
19.98162075253439 -1.871945390451618 -87.44421358451528 255 0 0 255
21.772002356818504 3.3182403876297437 -88.18948667242184 0 255 0 255
19.19409200238801 1.9208038591957566 -87.4221680274328 0 0 255 255
22.021779119917305 -0.036292596819467615 -86.08762915191278 0 0 255 255
18.393379957288502 1.9892810150963172 -90.58389573469346 255 255 0 255
24.9904365878169 -1.724094717554955 -92.00184601770268 0 255 255 255
25.041804209107838 -0.8102315577287165 -89.06319476209421 255 0 255 255
