ply
format ascii 1.0
comment VCGLIB generated
element vertex 9
property double x
property double y
property double z
property uchar red
property uchar green
property uchar blue
property uchar alpha
element face 0
property list uchar int vertex_indices
property uchar red
property uchar green
property uchar blue
property uchar alpha
end_header
-19.360781013362043 11.477899554894268 -87.84209592387481 255 0 0 255
-21.74744414354803 20.515540782353813 -87.53198494653076 0 255 0 255
-24.01097653607219 18.081054317031132 -84.9270814357767 0 0 255 255
-21.688018391641645 13.272746034582484 -85.5264423006644 0 0 255 255
-18.98141665020911 19.594328672420556 -88.07514656983327 0 0 255 255
-18.583823584231023 14.757767710221174 -87.50454921105975 0 0 255 255
-18.585678891906902 16.294391009403746 -91.99984191653532 255 255 0 255
-28.064670632374604 13.795893633929236 -88.92572452283645 0 255 255 255
-25.95181570838532 14.554721462128366 -86.6266590608854 255 0 255 255
