ply
format ascii 1.0
comment VCGLIB generated
element vertex 5
property double x
property double y
property double z
property uchar red
property uchar green
property uchar blue
property uchar alpha
element face 0
property list uchar int vertex_indices
property uchar red
property uchar green
property uchar blue
property uchar alpha
end_header
5.439116192123348 -17.391444515673225 -80.16297166450428 255 0 0 255
9.936713171325458 -17.33185839446827 -80.54357487149065 0 255 0 255
6.537737077469023 -13.29016162662139 -86.88935734882938 255 255 0 255
7.552596512210018 -18.991527462199386 -86.96395301195355 0 255 255 255
7.597482745521633 -18.848316758135226 -82.63262170942971 255 0 255 255
