ply
format ascii 1.0
comment VCGLIB generated
element vertex 10
property double x
property double y
property double z
property uchar red
property uchar green
property uchar blue
property uchar alpha
element face 0
property list uchar int vertex_indices
property uchar red
property uchar green
property uchar blue
property uchar alpha
end_header
21.96791005134589 4.775666706223197 -89.04979893031108 255 0 0 255
23.320529284810252 13.569861176890782 -89.71530911648105 0 255 0 255
19.80120976694804 7.144033409132302 -88.6529020681393 0 0 255 255
21.52270966268839 11.30732798171801 -89.47320039117113 0 0 255 255
24.481574830066307 6.0950861888021155 -87.85449596786131 0 0 255 255
25.533337971890823 9.76868805407389 -87.71875142656368 0 0 255 255
25.07613687769703 13.112902216509116 -88.5542534303736 0 0 255 255
19.020502197964 9.222467096560113 -92.49327994444204 255 255 0 255
29.295089408814647 6.344937040999035 -92.77206775021855 0 255 255 255
27.959102107076475 7.041214035686377 -90.2612681268267 255 0 255 255
