ply
format ascii 1.0
comment VCGLIB generated
element vertex 7
property double x
property double y
property double z
property uchar red
property uchar green
property uchar blue
property uchar alpha
element face 0
property list uchar int vertex_indices
property uchar red
property uchar green
property uchar blue
property uchar alpha
end_header
17.542462177796754 -8.526427258820075 -86.09441076740873 255 0 0 255
19.59837305456479 -3.029553257501318 -87.10795777113296 0 255 0 255
17.341411057661922 -3.956757533840591 -86.24293577178966 0 0 255 255
20.287805165997874 -6.201711381641243 -84.20944406283581 0 0 255 255
16.690680007408496 -3.7634901167052703 -89.64060025616347 255 255 0 255
22.149336423330027 -7.8249705717981755 -91.36445110754066 0 255 255 255
22.317197316658493 -7.3208322117823315 -86.9877741478675 255 0 255 255
