ply
format ascii 1.0
comment VCGLIB generated
element vertex 7
property double x
property double y
property double z
property uchar red
property uchar green
property uchar blue
property uchar alpha
element face 0
property list uchar int vertex_indices
property uchar red
property uchar green
property uchar blue
property uchar alpha
end_header
-14.494514886381808 -5.039884575961452 -86.56421248869867 255 0 0 255
-17.221011425653167 -0.0423279720973877 -86.85761020511725 0 255 0 255
-17.426359341620934 -3.192596625429201 -84.46433549217528 0 0 255 255
-14.677926201456845 -0.795409009706292 -86.22087397346753 0 0 255 255
-13.409127941752423 -1.072451850172337 -89.46294670519924 255 255 0 255
-19.09338611279906 -5.562982403255134 -90.53961467405816 0 255 255 255
-19.174649341070996 -4.8461282932992304 -87.10178556734351 255 0 255 255
