ply
format ascii 1.0
comment VCGLIB generated
element vertex 9
property double x
property double y
property double z
property uchar red
property uchar green
property uchar blue
property uchar alpha
element face 0
property list uchar int vertex_indices
property uchar red
property uchar green
property uchar blue
property uchar alpha
end_header
-16.945031476319066 1.200165549868366 -85.55489602132415 255 0 0 255
-20.435605045051446 8.691173262371876 -86.871017874333 0 255 0 255
-17.69795447990426 9.231442262590658 -85.87489993516157 0 0 255 255
-21.461260349779316 5.972902847240878 -85.63724805911009 0 0 255 255
-18.870368553914872 2.898195716913186 -85.52062456719526 0 0 255 255
-15.974620661709363 4.694843586940133 -85.02540222810558 0 0 255 255
-13.996614025599083 6.956806048678574 -89.30016882604964 255 255 0 255
-22.653424651157472 2.840916021416426 -89.74015887122712 0 255 255 255
-22.167681893599926 3.3880296476204137 -87.22765636227021 255 0 255 255
