ply
format ascii 1.0
comment VCGLIB generated
element vertex 365
property double x
property double y
property double z
property uchar red
property uchar green
property uchar blue
property uchar alpha
element face 658
property list uchar int vertex_indices
property uchar red
property uchar green
property uchar blue
property uchar alpha
end_header
-16.90487289428711 -3.718183755874634 -88.03260803222656 125 125 125 255 
-18.29944801330566 -3.312152624130249 -88.38686370849609 125 125 125 255 
-17.6013011932373 -4.540760517120361 -87.87660980224609 125 125 125 255 
-17.33367919921875 -5.045463562011719 -88.09416961669922 125 125 125 255 
-17.88347625732422 -3.311222076416016 -88.34397125244141 125 125 125 255 
-18.06644821166992 -2.893484354019165 -88.65554046630859 125 125 125 255 
-17.27271461486816 -4.0675048828125 -87.81380462646484 125 125 125 255 
-18.2033805847168 -5.001545906066895 -88.63901519775391 125 125 125 255 
-16.63654136657715 -3.599185705184937 -88.44133758544922 125 125 125 255 
-17.93948554992676 -3.887454509735107 -87.97457885742188 125 125 125 255 
-16.90762138366699 -5.162368297576904 -88.32225799560547 125 125 125 255 
-17.91414642333984 -3.792229652404785 -87.99322509765625 125 125 125 255 
-17.59403038024902 -3.775745153427124 -88.01324462890625 125 125 125 255 
-16.96938896179199 -5.314798831939697 -88.38359069824219 125 125 125 255 
-17.11000633239746 -5.103585720062256 -88.17745971679688 125 125 125 255 
-17.55293464660645 -4.442239761352539 -87.82620239257812 125 125 125 255 
-16.52563667297363 -4.75003719329834 -88.48977661132812 125 125 125 255 
-16.83896636962891 -3.473530054092407 -88.44247436523438 125 125 125 255 
-16.49068069458008 -3.868159770965576 -88.38479614257812 125 125 125 255 
-16.40158653259277 -4.069887638092041 -88.45746612548828 125 125 125 255 
-16.68717956542969 -4.935321807861328 -88.40409851074219 125 125 125 255 
-18.24248123168945 -3.742493629455566 -88.19764709472656 125 125 125 255 
-17.88595008850098 -4.007909774780273 -87.93260955810547 125 125 125 255 
-17.60659790039062 -3.897306203842163 -87.91804504394531 125 125 125 255 
-17.66473388671875 -3.35621166229248 -88.36948394775391 125 125 125 255 
-16.35888290405273 -3.924946546554565 -88.58139801025391 125 125 125 255 
-17.23172569274902 -4.490543842315674 -87.81816101074219 125 125 125 255 
-17.40177345275879 -3.265462636947632 -88.53755950927734 125 125 125 255 
-18.11833190917969 -5.249795913696289 -88.77150726318359 125 125 125 255 
-16.97411727905273 -4.384597778320312 -87.89868927001953 125 125 125 255 
-18.29867553710938 -2.913573026657104 -88.63906097412109 125 125 125 255 
-17.85504341125488 -3.744972467422485 -88.00445556640625 125 125 125 255 
-17.09823989868164 -5.34521484375 -88.35311126708984 125 125 125 255 
-17.28244781494141 -3.339407205581665 -88.47950744628906 125 125 125 255 
-16.98357772827148 -5.458382129669189 -88.48458099365234 125 125 125 255 
-17.25859642028809 -5.362799644470215 -88.34250640869141 125 125 125 255 
-18.20482444763184 -4.344291687011719 -88.23329925537109 125 125 125 255 
-17.33981323242188 -3.681761503219604 -88.09958648681641 125 125 125 255 
-17.7337703704834 -4.984860420227051 -88.18251800537109 125 125 125 255 
-17.15904808044434 -4.734210968017578 -87.93651580810547 125 125 125 255 
-17.47488975524902 -4.329854488372803 -87.78629302978516 125 125 125 255 
-17.23250961303711 -3.105531215667725 -88.74779510498047 125 125 125 255 
-17.49260139465332 -4.792755126953125 -87.95970153808594 125 125 125 255 
-16.81674385070801 -3.573797225952148 -88.27367401123047 125 125 125 255 
-17.00576210021973 -3.68241286277771 -88.03958892822266 125 125 125 255 
-16.76812744140625 -3.776335716247559 -88.06652069091797 125 125 125 255 
-17.03286933898926 -5.20635461807251 -88.27803802490234 125 125 125 255 
-16.39241600036621 -4.496435642242432 -88.54380035400391 125 125 125 255 
-18.3815803527832 -2.877972364425659 -88.66323852539062 125 125 125 255 
-17.75298881530762 -3.606276512145996 -88.10614776611328 125 125 125 255 
-17.18536376953125 -4.086888790130615 -87.81278228759766 125 125 125 255 
-18.14262580871582 -4.815102100372314 -88.40046691894531 125 125 125 255 
-17.27052116394043 -3.146617889404297 -88.7088623046875 125 125 125 255 
-16.43246078491211 -3.698763370513916 -88.60608673095703 125 125 125 255 
-17.60948181152344 -5.007445335388184 -88.13451385498047 125 125 125 255 
-18.15016174316406 -5.092549324035645 -88.65240478515625 125 125 125 255 
-16.91267013549805 -5.419960975646973 -88.48606109619141 125 125 125 255 
-16.73993492126465 -5.086819171905518 -88.41918182373047 125 125 125 255 
-17.57743263244629 -3.671108961105347 -88.09428405761719 125 125 125 255 
-17.57332801818848 -5.579488277435303 -88.66719818115234 125 125 125 255 
-16.53633117675781 -3.838713407516479 -88.32566833496094 125 125 125 255 
-17.87799263000488 -4.96035099029541 -88.25630187988281 125 125 125 255 
-17.94782829284668 -4.310969352722168 -88.00873565673828 125 125 125 255 
-16.91317558288574 -3.553091764450073 -88.24410247802734 125 125 125 255 
-18.72615623474121 -3.801893472671509 -88.73239135742188 125 125 125 255 
-17.32758903503418 -3.179475784301758 -88.65946197509766 125 125 125 255 
-18.3585147857666 -3.399829864501953 -88.38152313232422 125 125 125 255 
-17.45272064208984 -4.27241849899292 -87.78078460693359 125 125 125 255 
-16.44985008239746 -4.818744659423828 -88.58220672607422 125 125 125 255 
-16.7544002532959 -3.66905689239502 -88.18964385986328 125 125 125 255 
-16.46717643737793 -3.922728300094604 -88.39585113525391 125 125 125 255 
-16.68510055541992 -3.825757265090942 -88.10810089111328 125 125 125 255 
-17.79721069335938 -3.444243907928467 -88.24158477783203 125 125 125 255 
-17.17602157592773 -3.537990570068359 -88.23377990722656 125 125 125 255 
-17.6818790435791 -4.615231990814209 -87.94420623779297 125 125 125 255 
-17.69988059997559 -4.259326457977295 -87.84545135498047 125 125 125 255 
-18.19437789916992 -3.433802843093872 -88.27030944824219 125 125 125 255 
-17.5769214630127 -4.322873592376709 -87.80727386474609 125 125 125 255 
-18.12788581848145 -5.014935493469238 -88.55248260498047 125 125 125 255 
-17.4695873260498 -4.043651580810547 -87.828857421875 125 125 125 255 
-17.4691162109375 -5.622992038726807 -88.66827392578125 125 125 125 255 
-17.76666641235352 -3.934422731399536 -87.90868377685547 125 125 125 255 
-16.26850318908691 -4.333261013031006 -88.59885406494141 125 125 125 255 
-16.71833801269531 -5.233736991882324 -88.50121307373047 125 125 125 255 
-18.39813613891602 -3.951297044754028 -88.34932708740234 125 125 125 255 
-18.07023048400879 -3.551419019699097 -88.16192626953125 125 125 125 255 
-16.7553539276123 -4.562974452972412 -88.16228485107422 125 125 125 255 
-16.69124984741211 -3.725463628768921 -88.19319915771484 125 125 125 255 
-17.32909202575684 -4.532616138458252 -87.81854248046875 125 125 125 255 
-16.60683059692383 -3.85249924659729 -88.1937255859375 125 125 125 255 
-18.58177757263184 -3.567906141281128 -88.56756591796875 125 125 125 255 
-17.96261596679688 -3.511404275894165 -88.16732025146484 125 125 125 255 
-17.72225189208984 -4.321855545043945 -87.86714935302734 125 125 125 255 
-16.82640266418457 -4.531311511993408 -88.08237457275391 125 125 125 255 
-16.97392272949219 -5.66126537322998 -88.64764404296875 125 125 125 255 
-16.84230804443359 -3.64868426322937 -88.14239501953125 125 125 125 255 
-16.61957359313965 -3.677056312561035 -88.3587646484375 125 125 125 255 
-18.3946647644043 -4.461965084075928 -88.52418518066406 125 125 125 255 
-18.30102729797363 -4.158271789550781 -88.28093719482422 125 125 125 255 
-18.66548728942871 -4.294583320617676 -88.80961608886719 125 125 125 255 
-16.68990898132324 -4.019908905029297 -88.03165435791016 125 125 125 255 
-18.16945648193359 -3.29285740852356 -88.35329437255859 125 125 125 255 
-18.23140335083008 -5.145827293395996 -88.78618621826172 125 125 125 255 
-17.5412425994873 -5.198513031005859 -88.25348663330078 125 125 125 255 
-16.72932434082031 -4.713734149932861 -88.26020812988281 125 125 125 255 
-16.54792213439941 -3.63377046585083 -88.52452850341797 125 125 125 255 
-17.73237228393555 -4.778722763061523 -88.05648803710938 125 125 125 255 
-18.03290939331055 -3.304440021514893 -88.33224487304688 125 125 125 255 
-18.05713844299316 -3.644177436828613 -88.10838317871094 125 125 125 255 
-17.37654495239258 -4.106750011444092 -87.80142211914062 125 125 125 255 
-17.30558204650879 -5.112320899963379 -88.14407348632812 125 125 125 255 
-17.63316917419434 -5.476979732513428 -88.56118774414062 125 125 125 255 
-17.19972610473633 -3.970516443252563 -87.85447692871094 125 125 125 255 
-17.5717830657959 -4.652946472167969 -87.91271209716797 125 125 125 255 
-17.34027481079102 -5.451237201690674 -88.43499755859375 125 125 125 255 
-18.70578384399414 -3.977321624755859 -88.74732971191406 125 125 125 255 
-16.89507484436035 -5.578734874725342 -88.60236358642578 125 125 125 255 
-17.4920482635498 -5.059384346008301 -88.12775421142578 125 125 125 255 
-16.73274993896484 -3.950737953186035 -88.00153350830078 125 125 125 255 
-16.27537536621094 -4.201881885528564 -88.60137939453125 125 125 125 255 
-16.99794387817383 -4.882896423339844 -88.10783386230469 125 125 125 255 
-16.9180736541748 -4.063663005828857 -87.87351226806641 125 125 125 255 
-18.63280296325684 -3.322633981704712 -88.64414215087891 125 125 125 255 
-16.68825340270996 -4.262658596038818 -88.09040069580078 125 125 125 255 
-17.63056945800781 -4.811651706695557 -88.02152252197266 125 125 125 255 
-17.46525001525879 -4.592790126800537 -87.85515594482422 125 125 125 255 
-18.40889739990234 -4.931207180023193 -88.82359313964844 125 125 125 255 
-17.10246658325195 -3.456527233123779 -88.35646057128906 125 125 125 255 
-17.19699096679688 -4.617439746856689 -87.8697509765625 125 125 125 255 
-16.70885276794434 -3.597538948059082 -88.34930419921875 125 125 125 255 
-18.36764717102051 -3.80578088760376 -88.30907440185547 125 125 125 255 
-18.63413047790527 -3.230088233947754 -88.64585113525391 125 125 125 255 
-18.42671775817871 -4.163959980010986 -88.43965911865234 125 125 125 255 
-18.05214881896973 -3.126203060150146 -88.4757080078125 125 125 125 255 
-18.59641456604004 -3.944627285003662 -88.60816192626953 125 125 125 255 
-17.56532669067383 -3.348617315292358 -88.40800476074219 125 125 125 255 
-17.33273696899414 -3.897960901260376 -87.91756439208984 125 125 125 255 
-17.24661254882812 -3.590877056121826 -88.17417907714844 125 125 125 255 
-17.67328834533691 -3.092283248901367 -88.61553192138672 125 125 125 255 
-18.30240058898926 -4.234180927276611 -88.30411529541016 125 125 125 255 
-17.21137619018555 -5.674656391143799 -88.66605377197266 125 125 125 255 
-17.97953605651855 -5.096531391143799 -88.44808197021484 125 125 125 255 
-17.83051109313965 -3.395044565200806 -88.27787017822266 125 125 125 255 
-17.76382446289062 -2.966027021408081 -88.69577789306641 125 125 125 255 
-16.4669246673584 -3.750416040420532 -88.52188110351562 125 125 125 255 
-16.3466796875 -4.114598751068115 -88.54251861572266 125 125 125 255 
-17.52458763122559 -4.919808864593506 -88.04207611083984 125 125 125 255 
-17.6170539855957 -3.995484828948975 -87.8634033203125 125 125 125 255 
-18.56624031066895 -4.307997226715088 -88.7021484375 125 125 125 255 
-16.63702774047852 -4.114359855651855 -88.10313415527344 125 125 125 255 
-16.82566833496094 -4.196946620941162 -87.93440246582031 125 125 125 255 
-17.13283920288086 -5.629286766052246 -88.61958312988281 125 125 125 255 
-17.75155067443848 -4.923600196838379 -88.15301513671875 125 125 125 255 
-16.61802673339844 -3.44830846786499 -88.63273620605469 125 125 125 255 
-16.85918998718262 -4.083079814910889 -87.89746856689453 125 125 125 255 
-17.14874839782715 -4.905867576599121 -88.03813934326172 125 125 125 255 
-17.96389579772949 -4.545576095581055 -88.09938049316406 125 125 125 255 
-17.53864860534668 -4.163269519805908 -87.79994964599609 125 125 125 255 
-17.12092208862305 -3.69507098197937 -88.02867126464844 125 125 125 255 
-16.64184951782227 -3.913933992385864 -88.11229705810547 125 125 125 255 
-16.5757999420166 -5.166726112365723 -88.58060455322266 125 125 125 255 
-16.60239219665527 -3.954416751861572 -88.15534210205078 125 125 125 255 
-16.4283390045166 -4.271883010864258 -88.43071746826172 125 125 125 255 
-17.46622467041016 -4.990789890289307 -88.07154846191406 125 125 125 255 
-18.03321647644043 -5.134187698364258 -88.54557800292969 125 125 125 255 
-18.32404708862305 -4.000058650970459 -88.27259826660156 125 125 125 255 
-17.26074600219727 -4.613525390625 -87.8536376953125 125 125 125 255 
-16.95571327209473 -3.381540536880493 -88.53689575195312 125 125 125 255 
-16.75400924682617 -5.390223026275635 -88.5540771484375 125 125 125 255 
-18.0826530456543 -4.739195346832275 -88.29170989990234 125 125 125 255 
-17.09854316711426 -3.646682500839233 -88.07966613769531 125 125 125 255 
-18.35812377929688 -4.752417087554932 -88.63454437255859 125 125 125 255 
-18.11165237426758 -3.405211448669434 -88.26287841796875 125 125 125 255 
-16.41244697570801 -3.832157611846924 -88.54316711425781 125 125 125 255 
-18.32820892333984 -3.659160137176514 -88.28591918945312 125 125 125 255 
-17.09910583496094 -4.190376281738281 -87.81398010253906 125 125 125 255 
-17.3112964630127 -4.268411159515381 -87.78108978271484 125 125 125 255 
-17.97314262390137 -5.269946098327637 -88.61152648925781 125 125 125 255 
-17.40628242492676 -4.173170566558838 -87.78657531738281 125 125 125 255 
-17.74943733215332 -3.52752685546875 -88.17565155029297 125 125 125 255 
-18.3274974822998 -4.933186531066895 -88.73810577392578 125 125 125 255 
-17.99717330932617 -4.414525508880615 -88.07522583007812 125 125 125 255 
-16.89482307434082 -3.792891979217529 -87.97965240478516 125 125 125 255 
-17.13369560241699 -5.498180389404297 -88.47988128662109 125 125 125 255 
-16.88695335388184 -4.92309045791626 -88.21564483642578 125 125 125 255 
-17.43573188781738 -3.379129886627197 -88.40768432617188 125 125 125 255 
-17.54582595825195 -3.861216068267822 -87.94272613525391 125 125 125 255 
-17.01194763183594 -3.520852327346802 -88.26576232910156 125 125 125 255 
-16.43526458740234 -3.901023387908936 -88.45362854003906 125 125 125 255 
-17.4095516204834 -3.505458831787109 -88.278564453125 125 125 125 255 
-16.32977104187012 -4.319921016693115 -88.55522918701172 125 125 125 255 
-18.08199310302734 -4.22275447845459 -88.09111785888672 125 125 125 255 
-17.03310966491699 -5.008908748626709 -88.15666961669922 125 125 125 255 
-18.25576972961426 -3.508902788162231 -88.26997375488281 125 125 125 255 
-17.00414085388184 -3.808309078216553 -87.94168853759766 125 125 125 255 
-17.02150917053223 -5.591323375701904 -88.59201049804688 125 125 125 255 
-16.90275192260742 -4.193300724029541 -87.88259124755859 125 125 125 255 
-17.91696166992188 -4.18462610244751 -87.96117401123047 125 125 125 255 
-18.52466773986816 -3.381204843521118 -88.53147125244141 125 125 125 255 
-17.93350982666016 -5.009476661682129 -88.33440399169922 125 125 125 255 
-18.41298675537109 -4.280817031860352 -88.46482849121094 125 125 125 255 
-18.62680244445801 -4.518205642700195 -88.85990905761719 125 125 125 255 
-17.23237228393555 -4.828481674194336 -87.96788787841797 125 125 125 255 
-17.30179214477539 -5.580111026763916 -88.58026123046875 125 125 125 255 
-18.41127777099609 -4.515933513641357 -88.577880859375 125 125 125 255 
-16.8946590423584 -4.652775287628174 -88.07476806640625 125 125 125 255 
-16.5771369934082 -4.566173076629639 -88.34490966796875 125 125 125 255 
-17.1490650177002 -4.478302001953125 -87.83961486816406 125 125 125 255 
-16.57918167114258 -4.475479602813721 -88.30264282226562 125 125 125 255 
-16.50054168701172 -4.048531532287598 -88.30324554443359 125 125 125 255 
-17.10036087036133 -4.27659273147583 -87.81727600097656 125 125 125 255 
-16.59772682189941 -3.788151979446411 -88.26155853271484 125 125 125 255 
-16.8169116973877 -3.97832202911377 -87.93463897705078 125 125 125 255 
-16.66846084594727 -4.429030418395996 -88.18477630615234 125 125 125 255 
-18.07040596008301 -4.420338153839111 -88.13574981689453 125 125 125 255 
-17.84125900268555 -5.226129055023193 -88.44273376464844 125 125 125 255 
-18.32206726074219 -4.33137321472168 -88.36155700683594 125 125 125 255 
-17.07394218444824 -4.537243366241455 -87.89297485351562 125 125 125 255 
-16.46342658996582 -4.232097625732422 -88.37206268310547 125 125 125 255 
-17.82076644897461 -4.684779644012451 -88.06111145019531 125 125 125 255 
-18.00814819335938 -4.921542644500732 -88.33634948730469 125 125 125 255 
-18.08339691162109 -5.227346897125244 -88.70600128173828 125 125 125 255 
-18.70266151428223 -3.558908224105835 -88.69967651367188 125 125 125 255 
-17.89651107788086 -3.436640739440918 -88.22828674316406 125 125 125 255 
-18.43640327453613 -3.755603075027466 -88.38554382324219 125 125 125 255 
-17.44372749328613 -5.391407012939453 -88.39319610595703 125 125 125 255 
-17.71220397949219 -4.519387722015381 -87.92096710205078 125 125 125 255 
-17.61746597290039 -5.423583984375 -88.49553680419922 125 125 125 255 
-16.86780548095703 -5.318846702575684 -88.44318389892578 125 125 125 255 
-17.90734100341797 -4.407490253448486 -88.00697326660156 125 125 125 255 
-17.08340263366699 -4.013777732849121 -87.84512329101562 125 125 125 255 
-17.80114555358887 -3.770023584365845 -87.98768615722656 125 125 125 255 
-18.62727165222168 -3.727826595306396 -88.61459350585938 125 125 125 255 
-17.83886528015137 -3.916360139846802 -87.93110656738281 125 125 125 255 
-16.90596389770508 -3.926120758056641 -87.91179656982422 125 125 125 255 
-16.76742172241211 -3.846107959747314 -88.01921081542969 125 125 125 255 
-16.95737457275391 -4.137783050537109 -87.85447692871094 125 125 125 255 
-18.28305244445801 -4.835826396942139 -88.59929656982422 125 125 125 255 
-18.72683525085449 -4.150316715240479 -88.81601715087891 125 125 125 255 
-17.36773681640625 -4.423786640167236 -87.79161834716797 125 125 125 255 
-18.0318546295166 -3.921059131622314 -88.02130126953125 125 125 125 255 
-16.85824012756348 -4.422475337982178 -88.00587463378906 125 125 125 255 
-18.4176025390625 -3.508947610855103 -88.39788055419922 125 125 125 255 
-17.10942459106445 -3.158856630325317 -88.74317169189453 125 125 125 255 
-17.04030227661133 -3.243979692459106 -88.68330383300781 125 125 125 255 
-17.59593963623047 -5.16948938369751 -88.25091552734375 125 125 125 255 
-17.4776668548584 -5.480588912963867 -88.50052642822266 125 125 125 255 
-17.56927299499512 -4.235558032989502 -87.79923248291016 125 125 125 255 
-17.27802658081055 -3.285320281982422 -88.55653381347656 125 125 125 255 
-16.98140907287598 -4.758805751800537 -88.05208587646484 125 125 125 255 
-17.86315536499023 -4.485884189605713 -88.00262451171875 125 125 125 255 
-17.83802032470703 -4.584170818328857 -88.02494812011719 125 125 125 255 
-18.12554931640625 -3.774646282196045 -88.10327911376953 125 125 125 255 
-17.21010398864746 -5.107554912567139 -88.15065002441406 125 125 125 255 
-18.13289070129395 -4.489650249481201 -88.21724700927734 125 125 125 255 
-17.08593940734863 -3.271317481994629 -88.64508056640625 125 125 125 255 
-16.61339569091797 -4.961772441864014 -88.48531341552734 125 125 125 255 
-17.93658447265625 -4.792051315307617 -88.19883728027344 125 125 125 255 
-18.52518463134766 -4.181251049041748 -88.58538818359375 125 125 125 255 
-17.5836067199707 -3.58924674987793 -88.16548156738281 125 125 125 255 
-17.8787727355957 -5.288612842559814 -88.54524230957031 125 125 125 255 
-18.43732261657715 -3.046532392501831 -88.57615661621094 125 125 125 255 
-17.63557815551758 -3.42149019241333 -88.3214111328125 125 125 125 255 
-16.4091682434082 -5.091585159301758 -88.64330291748047 125 125 125 255 
-17.18217086791992 -5.040821552276611 -88.11212158203125 125 125 125 255 
-17.25895690917969 -4.41498327255249 -87.79802703857422 125 125 125 255 
-18.57638740539551 -4.521833419799805 -88.81519317626953 125 125 125 255 
-16.3715763092041 -4.639883995056152 -88.59841156005859 125 125 125 255 
-17.29393196105957 -4.995951175689697 -88.06166076660156 125 125 125 255 
-18.68040084838867 -3.367249965667725 -88.68475341796875 125 125 125 255 
-18.69539642333984 -4.08527135848999 -88.77101898193359 125 125 125 255 
-17.12929725646973 -5.419535636901855 -88.40696716308594 125 125 125 255 
-16.7084789276123 -4.122912406921387 -88.02184295654297 125 125 125 255 
-16.97243118286133 -4.550831317901611 -87.96522521972656 125 125 125 255 
-17.52910423278809 -3.049705505371094 -88.69490051269531 125 125 125 255 
-18.29202079772949 -4.709270477294922 -88.52118682861328 125 125 125 255 
-16.79402160644531 -3.437394142150879 -88.53244018554688 125 125 125 255 
-18.46780586242676 -3.223505973815918 -88.52040863037109 125 125 125 255 
-18.32360649108887 -5.051483631134033 -88.8021240234375 125 125 125 255 
-16.62021064758301 -5.295051097869873 -88.59461975097656 125 125 125 255 
-16.58313941955566 -5.362679481506348 -88.63377380371094 125 125 125 255 
-18.62426948547363 -4.10375452041626 -88.68559265136719 125 125 125 255 
-18.13895606994629 -2.882215738296509 -88.64851379394531 125 125 125 255 
-18.44719314575195 -4.05007791519165 -88.43138122558594 125 125 125 255 
-16.9980354309082 -4.263422012329102 -87.85037231445312 125 125 125 255 
-17.21118354797363 -5.424090385437012 -88.4000244140625 125 125 125 255 
-18.11054801940918 -4.781195163726807 -88.34280395507812 125 125 125 255 
-16.96286201477051 -3.633369922637939 -88.10462951660156 125 125 125 255 
-18.28267097473145 -3.84020733833313 -88.22354888916016 125 125 125 255 
-17.33078002929688 -3.783541679382324 -88.00479888916016 125 125 125 255 
-17.93863296508789 -4.778621673583984 -88.19313812255859 125 125 125 255 
-17.34465026855469 -4.686206817626953 -87.88204956054688 125 125 125 255 
-18.20979881286621 -4.88682222366333 -88.54225158691406 125 125 125 255 
-16.59771347045898 -4.235366344451904 -88.18697357177734 125 125 125 255 
-17.18941879272461 -5.241367340087891 -88.25187683105469 125 125 125 255 
-18.21562385559082 -4.173678874969482 -88.1971435546875 125 125 125 255 
-17.47936248779297 -3.719792604446411 -88.06723785400391 125 125 125 255 
-17.04119682312012 -4.735011577606201 -87.99720764160156 125 125 125 255 
-18.34844779968262 -3.140691995620728 -88.49868011474609 125 125 125 255 
-16.77015686035156 -4.241048336029053 -88.00002288818359 125 125 125 255 
-17.95156669616699 -3.66954517364502 -88.06021881103516 125 125 125 255 
-16.50589942932129 -5.170876979827881 -88.62194061279297 125 125 125 255 
-17.21352195739746 -5.344573020935059 -88.32881927490234 125 125 125 255 
-18.3903636932373 -3.899539947509766 -88.33509063720703 125 125 125 255 
-18.47358512878418 -4.791943073272705 -88.83214569091797 125 125 125 255 
-18.18203735351562 -3.555902481079102 -88.20820617675781 125 125 125 255 
-16.38947105407715 -4.340242385864258 -88.49208068847656 125 125 125 255 
-16.39070129394531 -4.860576152801514 -88.62416076660156 125 125 125 255 
-16.5319881439209 -3.910633563995361 -88.28519439697266 125 125 125 255 
-18.12975120544434 -4.948047161102295 -88.49142456054688 125 125 125 255 
-16.83608627319336 -5.516075611114502 -88.58475494384766 125 125 125 255 
-17.24392127990723 -3.807690382003784 -87.96329498291016 125 125 125 255 
-18.48486518859863 -4.706398963928223 -88.80039978027344 125 125 125 255 
-17.48688888549805 -5.533544540405273 -88.55930328369141 125 125 125 255 
-18.38850975036621 -3.493624925613403 -88.37516021728516 125 125 125 255 
-17.11319351196289 -3.317225933074951 -88.58798980712891 125 125 125 255 
-17.53028297424316 -5.124712467193604 -88.19028472900391 125 125 125 255 
-16.71267890930176 -5.513393402099609 -88.62728881835938 125 125 125 255 
-17.08928108215332 -3.807556867599487 -87.93744659423828 125 125 125 255 
-16.68024253845215 -4.743211269378662 -88.32315826416016 125 125 125 255 
-18.5203685760498 -4.739655017852783 -88.85079956054688 125 125 125 255 
-16.95899772644043 -3.581693887710571 -88.17953491210938 125 125 125 255 
-16.88687896728516 -5.028712272644043 -88.26743316650391 125 125 125 255 
-16.73611450195312 -3.454845666885376 -88.54827880859375 125 125 125 255 
-16.28837585449219 -4.058653831481934 -88.62643432617188 125 125 125 255 
-18.14347648620605 -4.477458953857422 -88.22199249267578 125 125 125 255 
-17.28648567199707 -5.652122974395752 -88.65822601318359 125 125 125 255 
-18.11482810974121 -4.015395641326904 -88.08293151855469 125 125 125 255 
-16.97902297973633 -5.126604080200195 -88.25656890869141 125 125 125 255 
-16.51026344299316 -3.765134334564209 -88.43872833251953 125 125 125 255 
-17.58347702026367 -5.292721271514893 -88.34828186035156 125 125 125 255 
-16.62635612487793 -4.048694610595703 -88.10993194580078 125 125 125 255 
-16.86363983154297 -3.359748840332031 -88.60720062255859 125 125 125 255 
-17.25733947753906 -3.414961099624634 -88.38410949707031 125 125 125 255 
-17.46052551269531 -4.698054790496826 -87.90234375 125 125 125 255 
-17.34827995300293 -5.264280319213867 -88.26527404785156 125 125 125 255 
-18.13803863525391 -3.905867099761963 -88.09678649902344 125 125 125 255 
-18.7347354888916 -4.008345127105713 -88.78364562988281 125 125 125 255 
-17.33430099487305 -4.004050254821777 -87.84251403808594 125 125 125 255 
-16.75333786010742 -4.921402931213379 -88.33523559570312 125 125 125 255 
-16.47325325012207 -4.541685104370117 -88.463623046875 125 125 125 255 
-18.69259262084961 -4.33320140838623 -88.84101867675781 125 125 125 255 
-16.29952812194824 -4.105240821838379 -88.6036376953125 125 125 125 255 
-18.49335479736328 -3.758517026901245 -88.45205688476562 125 125 125 255 
-16.46602821350098 -3.946079015731812 -88.38706970214844 125 125 125 255 
-16.75838851928711 -3.338705539703369 -88.66096496582031 125 125 125 255 
-16.90294647216797 -3.274743795394897 -88.68170166015625 125 125 125 255 
-17.14253616333008 -3.766271352767944 -87.97171783447266 125 125 125 255 
-17.44567680358887 -4.458457946777344 -87.80567932128906 125 125 125 255 
-16.66654586791992 -3.503425121307373 -88.54714965820312 125 125 125 255 
-18.5435676574707 -3.123509883880615 -88.59941864013672 125 125 125 255 
-17.64946365356445 -4.706828594207764 -87.97283172607422 125 125 125 255 
-18.18727111816406 -4.582930564880371 -88.31464385986328 125 125 125 255 
-18.0370044708252 -3.777220726013184 -88.04824829101562 125 125 125 255 
-17.79917526245117 -5.132562160491943 -88.32940673828125 125 125 125 255 
-17.24875831604004 -4.16314172744751 -87.79256439208984 125 125 125 255 
-18.68266296386719 -3.802499771118164 -88.68303680419922 125 125 125 255 
-18.41362953186035 -4.610805988311768 -88.63082122802734 125 125 125 255 
-17.4855785369873 -3.604873657226562 -88.17705535888672 125 125 125 255 
-18.05089950561523 -5.003251075744629 -88.44477081298828 125 125 125 255 
-17.71647644042969 -4.115629196166992 -87.85216522216797 125 125 125 255 
-17.02946472167969 -3.72844672203064 -87.99461364746094 125 125 125 255 
-16.7813720703125 -4.054482460021973 -87.947265625 125 125 125 255 
-17.39912033081055 -4.940486907958984 -88.02702331542969 125 125 125 255 
-18.25464630126953 -4.634200572967529 -88.42150115966797 125 125 125 255 
3 34 13 32 125 125 125 255 
3 13 10 46 125 125 125 255 
3 13 46 32 125 125 125 255 
3 56 13 34 125 125 125 255 
3 63 43 17 125 125 125 255 
3 76 1 66 125 125 125 255 
3 15 40 77 125 125 125 255 
3 55 78 7 125 125 125 255 
3 83 57 10 125 125 125 255 
3 45 87 69 125 125 125 255 
3 71 87 45 125 125 125 255 
3 71 89 87 125 125 125 255 
3 2 15 92 125 125 125 255 
3 92 15 77 125 125 125 255 
3 92 77 75 125 125 125 255 
3 0 45 95 125 125 125 255 
3 95 43 63 125 125 125 255 
3 95 69 43 125 125 125 255 
3 45 69 95 125 125 125 255 
3 76 101 1 125 125 125 255 
3 102 55 7 125 125 125 255 
3 108 91 85 125 125 125 255 
3 50 112 6 125 125 125 255 
3 74 113 2 125 125 125 255 
3 110 3 117 125 125 125 255 
3 2 125 15 125 125 125 255 
3 113 125 2 125 125 125 255 
3 17 129 8 125 125 125 255 
3 43 129 17 125 125 125 255 
3 69 129 43 125 125 125 255 
3 87 129 69 125 125 125 255 
3 129 96 8 125 125 125 255 
3 87 96 129 125 125 125 255 
3 4 133 107 125 125 125 255 
3 107 133 101 125 125 125 255 
3 4 24 138 125 125 125 255 
3 4 138 133 125 125 125 255 
3 24 135 138 125 125 125 255 
3 138 135 27 125 125 125 255 
3 139 98 132 125 125 125 255 
3 142 24 4 125 125 125 255 
3 72 24 142 125 125 125 255 
3 133 143 5 125 125 125 255 
3 133 138 143 125 125 125 255 
3 53 105 144 125 125 125 255 
3 145 25 19 125 125 125 255 
3 124 146 42 125 125 125 255 
3 54 146 124 125 125 125 255 
3 147 79 23 125 125 125 255 
3 147 23 81 125 125 125 255 
3 38 54 152 125 125 125 255 
3 38 152 61 125 125 125 255 
3 152 54 124 125 125 125 255 
3 152 124 106 125 125 125 255 
3 157 79 147 125 125 125 255 
3 159 89 71 125 125 125 255 
3 159 71 118 125 125 125 255 
3 100 159 118 125 125 125 255 
3 83 160 57 125 125 125 255 
3 89 159 161 125 125 125 255 
3 145 19 162 125 125 125 255 
3 163 117 3 125 125 125 255 
3 117 163 54 125 125 125 255 
3 54 163 146 125 125 125 255 
3 164 78 55 125 125 125 255 
3 166 26 88 125 125 125 255 
3 128 26 166 125 125 125 255 
3 39 128 166 125 125 125 255 
3 127 17 167 125 125 125 255 
3 37 170 137 125 125 125 255 
3 170 73 137 125 125 125 255 
3 158 170 37 125 125 125 255 
3 158 44 170 125 125 125 255 
3 85 91 172 125 125 125 255 
3 172 101 76 125 125 125 255 
3 107 101 172 125 125 125 255 
3 53 144 173 125 125 125 255 
3 178 109 79 125 125 125 255 
3 157 67 178 125 125 125 255 
3 157 178 79 125 125 125 255 
3 67 176 178 125 125 125 255 
3 49 179 91 125 125 125 255 
3 126 180 171 125 125 125 255 
3 182 45 0 125 125 125 255 
3 185 33 27 125 125 125 255 
3 135 185 27 125 125 125 255 
3 23 186 12 125 125 125 255 
3 79 186 23 125 125 125 255 
3 187 63 17 125 125 125 255 
3 187 17 127 125 125 125 255 
3 73 187 127 125 125 125 255 
3 25 188 19 125 125 125 255 
3 188 18 70 125 125 125 255 
3 173 188 25 125 125 125 255 
3 173 144 188 125 125 125 255 
3 137 73 189 125 125 125 255 
3 189 185 135 125 125 125 255 
3 47 82 190 125 125 125 255 
3 82 119 190 125 125 125 255 
3 190 119 145 125 125 125 255 
3 181 62 191 125 125 125 255 
3 192 120 155 125 125 125 255 
3 184 120 192 125 125 125 255 
3 193 76 66 125 125 125 255 
3 195 116 34 125 125 125 255 
3 94 116 195 125 125 125 255 
3 195 34 183 125 125 125 255 
3 151 195 183 125 125 125 255 
3 150 196 29 125 125 125 255 
3 196 154 121 125 125 125 255 
3 150 154 196 125 125 125 255 
3 92 197 62 125 125 125 255 
3 75 197 92 125 125 125 255 
3 62 197 191 125 125 125 255 
3 90 198 122 125 125 125 255 
3 200 139 132 125 125 125 255 
3 97 200 148 125 125 125 255 
3 155 39 202 125 125 125 255 
3 140 151 203 125 125 125 255 
3 151 183 203 125 125 125 255 
3 204 97 148 125 125 125 255 
3 86 93 205 125 125 125 255 
3 104 86 205 125 125 125 255 
3 184 104 205 125 125 125 255 
3 206 86 104 125 125 125 255 
3 128 207 26 125 125 125 255 
3 206 208 86 125 125 125 255 
3 210 207 29 125 125 125 255 
3 211 87 89 125 125 125 255 
3 60 96 211 125 125 125 255 
3 211 96 87 125 125 125 255 
3 86 213 93 125 125 125 255 
3 208 213 86 125 125 125 255 
3 156 181 214 125 125 125 255 
3 36 214 191 125 125 125 255 
3 181 191 214 125 125 125 255 
3 216 36 139 125 125 125 255 
3 97 216 200 125 125 125 255 
3 200 216 139 125 125 125 255 
3 39 217 128 125 125 125 255 
3 217 29 207 125 125 125 255 
3 217 207 128 125 125 125 255 
3 162 19 218 125 125 125 255 
3 208 162 218 125 125 125 255 
3 19 209 218 125 125 125 255 
3 199 61 220 125 125 125 255 
3 28 221 102 125 125 125 255 
3 221 55 102 125 125 125 255 
3 221 164 55 125 125 125 255 
3 177 164 221 125 125 125 255 
3 223 4 107 125 125 125 255 
3 142 4 223 125 125 125 255 
3 223 72 142 125 125 125 255 
3 172 91 223 125 125 125 255 
3 172 223 107 125 125 125 255 
3 223 179 72 125 125 125 255 
3 91 179 223 125 125 125 255 
3 130 174 224 125 125 125 255 
3 114 35 225 125 125 125 255 
3 74 2 226 125 125 125 255 
3 226 2 92 125 125 125 255 
3 13 228 10 125 125 125 255 
3 56 228 13 125 125 125 255 
3 228 83 10 125 125 125 255 
3 56 168 228 125 125 125 255 
3 168 83 228 125 125 125 255 
3 229 92 62 125 125 125 255 
3 229 62 181 125 125 125 255 
3 229 181 156 125 125 125 255 
3 50 230 112 125 125 125 255 
3 175 230 50 125 125 125 255 
3 23 12 231 125 125 125 255 
3 31 231 49 125 125 125 255 
3 231 12 58 125 125 125 255 
3 49 231 58 125 125 125 255 
3 81 23 231 125 125 125 255 
3 232 90 222 125 125 125 255 
3 9 233 11 125 125 125 255 
3 22 233 9 125 125 125 255 
3 233 31 11 125 125 125 255 
3 22 81 233 125 125 125 255 
3 233 231 31 125 125 125 255 
3 81 231 233 125 125 125 255 
3 154 234 121 125 125 125 255 
3 234 182 194 125 125 125 255 
3 154 212 234 125 125 125 255 
3 230 121 234 125 125 125 255 
3 230 234 194 125 125 125 255 
3 71 45 235 125 125 125 255 
3 118 71 235 125 125 125 255 
3 235 45 182 125 125 125 255 
3 118 235 212 125 125 125 255 
3 234 235 182 125 125 125 255 
3 212 235 234 125 125 125 255 
3 196 121 236 125 125 125 255 
3 236 121 230 125 125 125 255 
3 175 236 230 125 125 125 255 
3 7 237 180 125 125 125 255 
3 180 237 171 125 125 125 255 
3 239 67 40 125 125 125 255 
3 239 176 67 125 125 125 255 
3 240 22 9 125 125 125 255 
3 197 22 240 125 125 125 255 
3 213 241 93 125 125 125 255 
3 213 123 241 125 125 125 255 
3 242 198 90 125 125 125 255 
3 224 174 242 125 125 125 255 
3 52 243 41 125 125 125 255 
3 245 54 38 125 125 125 255 
3 203 114 246 125 125 125 255 
3 246 114 225 125 125 125 255 
3 111 246 227 125 125 125 255 
3 246 225 227 125 125 125 255 
3 40 67 247 125 125 125 255 
3 77 40 247 125 125 125 255 
3 77 247 75 125 125 125 255 
3 247 67 157 125 125 125 255 
3 27 33 248 125 125 125 255 
3 27 248 65 125 125 125 255 
3 120 249 155 125 125 125 255 
3 184 249 120 125 125 125 255 
3 184 205 249 125 125 125 255 
3 250 226 92 125 125 125 255 
3 250 92 229 125 125 125 255 
3 156 250 229 125 125 125 255 
3 219 74 251 125 125 125 255 
3 219 251 156 125 125 125 255 
3 251 74 226 125 125 125 255 
3 156 251 250 125 125 125 255 
3 251 226 250 125 125 125 255 
3 110 253 3 125 125 125 255 
3 169 156 254 125 125 125 255 
3 156 214 254 125 125 125 255 
3 65 255 52 125 125 125 255 
3 255 243 52 125 125 125 255 
3 167 244 255 125 125 125 255 
3 255 244 243 125 125 125 255 
3 256 16 20 125 125 125 255 
3 57 256 20 125 125 125 255 
3 256 68 16 125 125 125 255 
3 160 256 57 125 125 125 255 
3 160 68 256 125 125 125 255 
3 61 152 257 125 125 125 255 
3 152 106 257 125 125 125 255 
3 220 61 257 125 125 125 255 
3 220 257 169 125 125 125 255 
3 200 132 258 125 125 125 255 
3 148 200 258 125 125 125 255 
3 49 58 259 125 125 125 255 
3 259 179 49 125 125 125 255 
3 260 141 164 125 125 125 255 
3 177 260 164 125 125 125 255 
3 260 215 141 125 125 125 255 
3 111 227 260 125 125 125 255 
3 260 227 215 125 125 125 255 
3 261 30 48 125 125 125 255 
3 262 24 72 125 125 125 255 
3 262 135 24 125 125 125 255 
3 179 262 72 125 125 125 255 
3 262 189 135 125 125 125 255 
3 259 262 179 125 125 125 255 
3 14 192 264 125 125 125 255 
3 192 155 264 125 125 125 255 
3 253 264 3 125 125 125 255 
3 14 264 253 125 125 125 255 
3 88 26 265 125 125 125 255 
3 26 207 265 125 125 125 255 
3 265 210 176 125 125 125 255 
3 265 207 210 125 125 125 255 
3 88 265 239 125 125 125 255 
3 239 265 176 125 125 125 255 
3 266 148 99 125 125 125 255 
3 266 204 148 125 125 125 255 
3 68 267 16 125 125 125 255 
3 155 202 268 125 125 125 255 
3 264 268 3 125 125 125 255 
3 264 155 268 125 125 125 255 
3 90 122 269 125 125 125 255 
3 269 122 131 125 125 125 255 
3 34 32 271 125 125 125 255 
3 183 34 271 125 125 125 255 
3 272 149 100 125 125 125 255 
3 123 149 272 125 125 125 255 
3 205 93 273 125 125 125 255 
3 217 273 29 125 125 125 255 
3 273 241 29 125 125 125 255 
3 93 241 273 125 125 125 255 
3 205 273 249 125 125 125 255 
3 27 65 274 125 125 125 255 
3 138 27 274 125 125 125 255 
3 138 274 143 125 125 125 255 
3 171 237 275 125 125 125 255 
3 17 276 167 125 125 125 255 
3 66 1 277 125 125 125 255 
3 122 277 131 125 125 125 255 
3 198 66 277 125 125 125 255 
3 198 277 122 125 125 125 255 
3 102 7 278 125 125 125 255 
3 180 278 7 125 125 125 255 
3 278 180 126 125 125 125 255 
3 279 160 83 125 125 125 255 
3 168 279 83 125 125 125 255 
3 280 279 168 125 125 125 255 
3 281 134 115 125 125 125 255 
3 148 281 99 125 125 125 255 
3 99 281 238 125 125 125 255 
3 134 281 258 125 125 125 255 
3 148 258 281 125 125 125 255 
3 270 281 115 125 125 125 255 
3 238 281 270 125 125 125 255 
3 5 282 133 125 125 125 255 
3 133 282 30 125 125 125 255 
3 132 98 283 125 125 125 255 
3 283 165 84 125 125 125 255 
3 98 165 283 125 125 125 255 
3 258 132 283 125 125 125 255 
3 258 283 134 125 125 125 255 
3 29 196 284 125 125 125 255 
3 29 284 210 125 125 125 255 
3 210 284 175 125 125 125 255 
3 175 284 236 125 125 125 255 
3 236 284 196 125 125 125 255 
3 285 35 114 125 125 125 255 
3 203 285 114 125 125 125 255 
3 203 183 285 125 125 125 255 
3 183 271 285 125 125 125 255 
3 51 220 286 125 125 125 255 
3 169 286 220 125 125 125 255 
3 44 0 287 125 125 125 255 
3 287 0 95 125 125 125 255 
3 44 287 170 125 125 125 255 
3 288 21 174 125 125 125 255 
3 288 174 130 125 125 125 255 
3 186 136 289 125 125 125 255 
3 169 290 156 125 125 125 255 
3 106 219 290 125 125 125 255 
3 290 219 156 125 125 125 255 
3 257 106 290 125 125 125 255 
3 257 290 169 125 125 125 255 
3 291 88 125 125 125 125 255 
3 39 166 291 125 125 125 255 
3 291 166 88 125 125 125 255 
3 202 39 291 125 125 125 255 
3 78 292 7 125 125 125 255 
3 7 292 237 125 125 125 255 
3 275 292 51 125 125 125 255 
3 237 292 275 125 125 125 255 
3 293 149 123 125 125 125 255 
3 209 149 293 125 125 125 255 
3 213 293 123 125 125 125 255 
3 208 293 213 125 125 125 255 
3 208 218 293 125 125 125 255 
3 218 209 293 125 125 125 255 
3 46 14 294 125 125 125 255 
3 32 46 294 125 125 125 255 
3 294 14 253 125 125 125 255 
3 294 253 110 125 125 125 255 
3 139 36 295 125 125 125 255 
3 139 295 98 125 125 125 255 
3 165 98 295 125 125 125 255 
3 36 191 295 125 125 125 255 
3 12 296 58 125 125 125 255 
3 296 12 186 125 125 125 255 
3 289 37 296 125 125 125 255 
3 186 289 296 125 125 125 255 
3 155 297 39 125 125 125 255 
3 297 217 39 125 125 125 255 
3 249 297 155 125 125 125 255 
3 297 273 217 125 125 125 255 
3 249 273 297 125 125 125 255 
3 1 101 298 125 125 125 255 
3 298 133 30 125 125 125 255 
3 101 133 298 125 125 125 255 
3 298 30 261 125 125 125 255 
3 1 298 277 125 125 125 255 
3 277 298 261 125 125 125 255 
3 29 299 150 125 125 125 255 
3 29 241 299 125 125 125 255 
3 241 123 299 125 125 125 255 
3 123 272 299 125 125 125 255 
3 299 272 150 125 125 125 255 
3 11 31 300 125 125 125 255 
3 31 49 300 125 125 125 255 
3 300 49 91 125 125 125 255 
3 300 91 108 125 125 125 255 
3 301 68 160 125 125 125 255 
3 263 68 301 125 125 125 255 
3 279 301 160 125 125 125 255 
3 271 32 302 125 125 125 255 
3 285 302 35 125 125 125 255 
3 285 271 302 125 125 125 255 
3 32 294 302 125 125 125 255 
3 303 84 165 125 125 125 255 
3 303 130 224 125 125 125 255 
3 288 130 303 125 125 125 255 
3 165 288 303 125 125 125 255 
3 126 171 304 125 125 125 255 
3 108 85 305 125 125 125 255 
3 305 172 76 125 125 125 255 
3 305 85 172 125 125 125 255 
3 21 305 174 125 125 125 255 
3 305 76 193 125 125 125 255 
3 174 305 193 125 125 125 255 
3 252 305 21 125 125 125 255 
3 108 305 252 125 125 125 255 
3 306 145 162 125 125 125 255 
3 47 190 306 125 125 125 255 
3 306 190 145 125 125 125 255 
3 306 162 208 125 125 125 255 
3 263 307 68 125 125 125 255 
3 68 307 267 125 125 125 255 
3 308 18 60 125 125 125 255 
3 70 18 308 125 125 125 255 
3 308 89 161 125 125 125 255 
3 209 308 161 125 125 125 255 
3 308 60 211 125 125 125 255 
3 211 89 308 125 125 125 255 
3 292 309 51 125 125 125 255 
3 78 309 292 125 125 125 255 
3 34 310 56 125 125 125 255 
3 34 116 310 125 125 125 255 
3 310 168 56 125 125 125 255 
3 112 311 136 125 125 125 255 
3 289 311 37 125 125 125 255 
3 136 311 289 125 125 125 255 
3 304 171 312 125 125 125 255 
3 59 80 313 125 125 125 255 
3 59 313 111 125 125 125 255 
3 80 203 313 125 125 125 255 
3 313 246 111 125 125 125 255 
3 313 203 246 125 125 125 255 
3 314 193 66 125 125 125 255 
3 174 193 314 125 125 125 255 
3 314 66 198 125 125 125 255 
3 174 314 242 125 125 125 255 
3 242 314 198 125 125 125 255 
3 127 167 315 125 125 125 255 
3 33 315 248 125 125 125 255 
3 248 315 65 125 125 125 255 
3 315 255 65 125 125 125 255 
3 315 167 255 125 125 125 255 
3 316 117 54 125 125 125 255 
3 110 117 316 125 125 125 255 
3 316 54 245 125 125 125 255 
3 103 316 245 125 125 125 255 
3 310 317 168 125 125 125 255 
3 230 318 112 125 125 125 255 
3 230 194 318 125 125 125 255 
3 20 16 319 125 125 125 255 
3 16 206 319 125 125 125 255 
3 319 206 104 125 125 125 255 
3 304 312 320 125 125 125 255 
3 321 95 63 125 125 125 255 
3 170 321 73 125 125 125 255 
3 321 63 187 125 125 125 255 
3 73 321 187 125 125 125 255 
3 287 95 321 125 125 125 255 
3 170 287 321 125 125 125 255 
3 10 57 322 125 125 125 255 
3 322 184 192 125 125 125 255 
3 17 323 276 125 125 125 255 
3 325 214 36 125 125 125 255 
3 216 325 36 125 125 125 255 
3 254 214 325 125 125 125 255 
3 80 326 203 125 125 125 255 
3 140 203 326 125 125 125 255 
3 191 197 327 125 125 125 255 
3 197 240 327 125 125 125 255 
3 295 327 165 125 125 125 255 
3 295 191 327 125 125 125 255 
3 10 328 46 125 125 125 255 
3 46 328 14 125 125 125 255 
3 328 192 14 125 125 125 255 
3 10 322 328 125 125 125 255 
3 192 328 322 125 125 125 255 
3 329 60 18 125 125 125 255 
3 96 329 8 125 125 125 255 
3 96 60 329 125 125 125 255 
3 8 329 105 125 125 125 255 
3 144 105 329 125 125 125 255 
3 188 329 18 125 125 125 255 
3 144 329 188 125 125 125 255 
3 227 330 215 125 125 125 255 
3 227 225 330 125 125 125 255 
3 330 103 245 125 125 125 255 
3 149 331 100 125 125 125 255 
3 331 159 100 125 125 125 255 
3 161 159 331 125 125 125 255 
3 209 331 149 125 125 125 255 
3 209 161 331 125 125 125 255 
3 167 276 332 125 125 125 255 
3 73 127 333 125 125 125 255 
3 185 333 33 125 125 125 255 
3 73 333 189 125 125 125 255 
3 189 333 185 125 125 125 255 
3 33 333 315 125 125 125 255 
3 333 127 315 125 125 125 255 
3 42 334 113 125 125 125 255 
3 113 334 125 125 125 125 255 
3 42 202 334 125 125 125 255 
3 334 291 125 125 125 125 255 
3 202 291 334 125 125 125 255 
3 35 335 225 125 125 125 255 
3 294 110 335 125 125 125 255 
3 302 335 35 125 125 125 255 
3 302 294 335 125 125 125 255 
3 335 316 103 125 125 125 255 
3 335 110 316 125 125 125 255 
3 335 103 330 125 125 125 255 
3 225 335 330 125 125 125 255 
3 336 252 21 125 125 125 255 
3 336 21 288 125 125 125 255 
3 165 336 288 125 125 125 255 
3 327 336 165 125 125 125 255 
3 327 240 336 125 125 125 255 
3 270 115 337 125 125 125 255 
3 109 6 338 125 125 125 255 
3 79 109 338 125 125 125 255 
3 6 112 338 125 125 125 255 
3 338 112 136 125 125 125 255 
3 79 338 186 125 125 125 255 
3 338 136 186 125 125 125 255 
3 57 20 339 125 125 125 255 
3 339 104 184 125 125 125 255 
3 20 319 339 125 125 125 255 
3 339 319 104 125 125 125 255 
3 57 339 322 125 125 125 255 
3 322 339 184 125 125 125 255 
3 16 340 206 125 125 125 255 
3 340 208 206 125 125 125 255 
3 16 267 340 125 125 125 255 
3 267 47 340 125 125 125 255 
3 47 306 340 125 125 125 255 
3 340 306 208 125 125 125 255 
3 99 341 266 125 125 125 255 
3 266 341 201 125 125 125 255 
3 145 342 25 125 125 125 255 
3 119 342 145 125 125 125 255 
3 342 324 25 125 125 125 255 
3 343 90 232 125 125 125 255 
3 134 343 232 125 125 125 255 
3 343 242 90 125 125 125 255 
3 224 242 343 125 125 125 255 
3 283 84 343 125 125 125 255 
3 283 343 134 125 125 125 255 
3 343 84 303 125 125 125 255 
3 343 303 224 125 125 125 255 
3 188 344 19 125 125 125 255 
3 188 70 344 125 125 125 255 
3 19 344 209 125 125 125 255 
3 344 70 308 125 125 125 255 
3 344 308 209 125 125 125 255 
3 323 345 276 125 125 125 255 
3 276 345 332 125 125 125 255 
3 167 346 244 125 125 125 255 
3 167 332 346 125 125 125 255 
3 332 345 346 125 125 125 255 
3 37 347 158 125 125 125 255 
3 37 311 347 125 125 125 255 
3 112 347 311 125 125 125 255 
3 112 318 347 125 125 125 255 
3 15 348 40 125 125 125 255 
3 125 348 15 125 125 125 255 
3 125 88 348 125 125 125 255 
3 348 239 40 125 125 125 255 
3 88 239 348 125 125 125 255 
3 17 8 349 125 125 125 255 
3 8 105 349 125 125 125 255 
3 349 323 17 125 125 125 255 
3 349 153 323 125 125 125 255 
3 277 350 131 125 125 125 255 
3 277 261 350 125 125 125 255 
3 351 42 113 125 125 125 255 
3 351 113 74 125 125 125 255 
3 124 42 351 125 125 125 255 
3 106 124 351 125 125 125 255 
3 219 351 74 125 125 125 255 
3 106 351 219 125 125 125 255 
3 169 254 352 125 125 125 255 
3 352 325 216 125 125 125 255 
3 352 254 325 125 125 125 255 
3 353 9 11 125 125 125 255 
3 240 9 353 125 125 125 255 
3 353 108 252 125 125 125 255 
3 353 11 300 125 125 125 255 
3 300 108 353 125 125 125 255 
3 240 353 336 125 125 125 255 
3 336 353 252 125 125 125 255 
3 354 38 61 125 125 125 255 
3 61 199 354 125 125 125 255 
3 141 354 199 125 125 125 255 
3 215 354 141 125 125 125 255 
3 354 245 38 125 125 125 255 
3 215 330 354 125 125 125 255 
3 330 245 354 125 125 125 255 
3 355 50 6 125 125 125 255 
3 355 6 109 125 125 125 255 
3 355 175 50 125 125 125 255 
3 178 355 109 125 125 125 255 
3 176 355 178 125 125 125 255 
3 210 175 355 125 125 125 255 
3 176 210 355 125 125 125 255 
3 115 356 64 125 125 125 255 
3 115 134 356 125 125 125 255 
3 134 232 356 125 125 125 255 
3 357 204 266 125 125 125 255 
3 171 275 357 125 125 125 255 
3 275 204 357 125 125 125 255 
3 171 357 312 125 125 125 255 
3 312 357 266 125 125 125 255 
3 37 137 358 125 125 125 255 
3 358 137 189 125 125 125 255 
3 58 358 259 125 125 125 255 
3 358 189 262 125 125 125 255 
3 259 358 262 125 125 125 255 
3 296 37 358 125 125 125 255 
3 58 296 358 125 125 125 255 
3 164 359 78 125 125 125 255 
3 164 141 359 125 125 125 255 
3 141 199 359 125 125 125 255 
3 51 359 220 125 125 125 255 
3 359 199 220 125 125 125 255 
3 309 359 51 125 125 125 255 
3 78 359 309 125 125 125 255 
3 360 81 22 125 125 125 255 
3 360 147 81 125 125 125 255 
3 360 157 147 125 125 125 255 
3 197 360 22 125 125 125 255 
3 75 360 197 125 125 125 255 
3 75 247 360 125 125 125 255 
3 247 157 360 125 125 125 255 
3 361 0 44 125 125 125 255 
3 361 44 158 125 125 125 255 
3 182 0 361 125 125 125 255 
3 194 182 361 125 125 125 255 
3 318 194 361 125 125 125 255 
3 347 361 158 125 125 125 255 
3 318 361 347 125 125 125 255 
3 362 100 118 125 125 125 255 
3 150 362 154 125 125 125 255 
3 362 118 212 125 125 125 255 
3 362 212 154 125 125 125 255 
3 272 100 362 125 125 125 255 
3 272 362 150 125 125 125 255 
3 146 363 42 125 125 125 255 
3 3 363 163 125 125 125 255 
3 163 363 146 125 125 125 255 
3 363 202 42 125 125 125 255 
3 3 268 363 125 125 125 255 
3 268 202 363 125 125 125 255 
3 364 97 204 125 125 125 255 
3 364 216 97 125 125 125 255 
3 275 51 364 125 125 125 255 
3 364 204 275 125 125 125 255 
3 51 286 364 125 125 125 255 
3 364 286 169 125 125 125 255 
3 364 169 352 125 125 125 255 
3 352 216 364 125 125 125 255 
