ply
format ascii 1.0
comment VCGLIB generated
element vertex 5
property double x
property double y
property double z
property uchar red
property uchar green
property uchar blue
property uchar alpha
element face 0
property list uchar int vertex_indices
property uchar red
property uchar green
property uchar blue
property uchar alpha
end_header
-10.557581727307717 -12.464373253912413 -85.0494883431837 255 0 0 255
-13.415226217055151 -7.383652500380468 -84.1617119304963 0 255 0 255
-9.701295397762593 -7.325322365684148 -87.83206723763726 255 255 0 255
-14.860975806646518 -11.408719146552357 -88.4900320566862 0 255 255 255
-14.427154920129311 -11.250384214646871 -86.14538837087377 255 0 255 255
