ply
format ascii 1.0
comment VCGLIB generated
element vertex 9
property double x
property double y
property double z
property uchar red
property uchar green
property uchar blue
property uchar alpha
element face 0
property list uchar int vertex_indices
property uchar red
property uchar green
property uchar blue
property uchar alpha
end_header
-20.823667525849473 10.131065907154063 -88.27168179074343 255 0 0 255
-23.744092145546873 18.176435197975124 -91.3307680224712 0 255 0 255
-21.167390516277734 18.564062991981253 -88.37150538376049 0 0 255 255
-25.629745601604906 14.695058406876571 -88.34974207038209 0 0 255 255
-20.097331221733 14.329494056056545 -86.79998378950394 0 0 255 255
-23.87250483056357 10.596349260618021 -87.37689503493034 0 0 255 255
-16.686245628120087 16.257468138135284 -91.8927633163821 255 255 0 255
-26.30473523347151 11.872354962497026 -92.81426176031941 0 255 255 255
-25.944758981387125 11.969908296363876 -90.63041984467287 255 0 255 255
