ply
format ascii 1.0
comment VCGLIB generated
element vertex 9
property double x
property double y
property double z
property uchar red
property uchar green
property uchar blue
property uchar alpha
element face 0
property list uchar int vertex_indices
property uchar red
property uchar green
property uchar blue
property uchar alpha
end_header
25.957252191088134 10.913853832220433 -88.83545344319059 255 0 0 255
28.457182633510996 19.763491234476987 -92.54930867792605 0 255 0 255
25.71872130438566 20.06330537513516 -88.93805601801024 0 0 255 255
24.18746337468386 15.91745200844699 -87.5539505848248 0 0 255 255
30.094787778412723 17.16700522036996 -88.91195233320863 0 0 255 255
29.109399777237936 12.255542648403045 -88.06366969031937 0 0 255 255
21.378508741533675 18.092480090109493 -92.68072191157032 255 255 0 255
31.081365872038674 14.250147951432421 -93.9934945015742 0 255 255 255
30.82314952352351 14.55711989366532 -91.73534137037083 255 0 255 255
