ply
format ascii 1.0
comment VCGLIB generated
element vertex 5
property double x
property double y
property double z
property uchar red
property uchar green
property uchar blue
property uchar alpha
element face 0
property list uchar int vertex_indices
property uchar red
property uchar green
property uchar blue
property uchar alpha
end_header
12.587131078240052 -17.05520218406069 -84.87625284904604 255 0 0 255
16.395614635148448 -12.272382526777466 -85.50697277050824 0 255 0 255
10.899399158009553 -11.464845741257523 -88.8030456861181 255 255 0 255
15.227591250607126 -15.546481569202946 -91.45268484633105 0 255 255 255
15.28196177727336 -15.94903634503737 -87.24738616716179 255 0 255 255
