ply
format ascii 1.0
comment VCGLIB generated
element vertex 10
property double x
property double y
property double z
property uchar red
property uchar green
property uchar blue
property uchar alpha
element face 0
property list uchar int vertex_indices
property uchar red
property uchar green
property uchar blue
property uchar alpha
end_header
21.768369391500425 1.839412006164225 -87.14452468128977 255 0 0 255
21.33658826829338 0.5325536124400339 -90.42091301344952 0 255 0 255
24.73170228406204 10.907528169692931 -87.55237721744462 0 255 0 255
22.903840491621647 10.607327888954675 -86.57839166530131 0 0 255 255
19.1969572952817 7.589213078191181 -86.67087099964068 0 0 255 255
20.14801690732361 5.07105864927529 -86.71097311554877 0 0 255 255
25.518115202836036 5.1078203597337595 -86.33010860769467 0 0 255 255
19.10287279385517 9.15354430582677 -90.75958236714847 255 255 0 255
27.650038648420697 5.345347506000614 -90.82132935584977 0 255 255 255
27.0694210570662 5.350522374463758 -88.47585661833998 255 0 255 255
