ply
format ascii 1.0
comment VCGLIB generated
element vertex 5
property double x
property double y
property double z
property uchar red
property uchar green
property uchar blue
property uchar alpha
element face 0
property list uchar int vertex_indices
property uchar red
property uchar green
property uchar blue
property uchar alpha
end_header
3.1034902692076534 -18.595383763045525 -82.76984195731148 255 0 0 255
-4.862773395374507 -17.14148106177059 -83.5793127666642 0 255 0 255
-0.6405221893837005 -12.756315815786554 -88.78939406815263 255 255 0 255
-1.6090364382222355 -19.434131678360743 -91.12564779903505 0 255 255 255
-1.6372341482619106 -19.41814225172172 -85.40737575029235 255 0 255 255
