ply
format ascii 1.0
comment VCGLIB generated
element vertex 5
property double x
property double y
property double z
property uchar red
property uchar green
property uchar blue
property uchar alpha
element face 0
property list uchar int vertex_indices
property uchar red
property uchar green
property uchar blue
property uchar alpha
end_header
-6.260228672975474 -18.04284971615718 -83.26963002520571 255 0 0 255
-9.065435883636905 -12.701477674266197 -83.6652022344515 0 255 0 255
-5.383651531269981 -13.646826610545943 -88.02505562273116 255 255 0 255
-9.653736781507696 -16.530868523447253 -90.310285082765 0 255 255 255
-9.215013570450381 -16.635157249374835 -86.01396680492701 255 0 255 255
