ply
format ascii 1.0
comment VCGLIB generated
element vertex 6
property double x
property double y
property double z
property uchar red
property uchar green
property uchar blue
property uchar alpha
element face 0
property list uchar int vertex_indices
property uchar red
property uchar green
property uchar blue
property uchar alpha
end_header
20.06775974467601 -4.099247187522341 -89.73813048003963 255 0 0 255
18.478298701647205 -0.8034544032768629 -87.64118094458527 0 0 255 255
23.33894853654366 -2.296097908304297 -86.95689038132348 0 0 255 255
16.553002023844122 0.4552189545896277 -91.14819952116831 255 255 0 255
25.49885678466582 -2.393939665705915 -91.3924678172817 0 255 255 255
24.896274316891926 -2.81314321946828 -89.39605482684063 255 0 255 255
