ply
format ascii 1.0
comment VCGLIB generated
element vertex 9
property double x
property double y
property double z
property uchar red
property uchar green
property uchar blue
property uchar alpha
element face 0
property list uchar int vertex_indices
property uchar red
property uchar green
property uchar blue
property uchar alpha
end_header
21.02779444524964 -0.13145428992192443 -86.7398495248294 255 0 0 255
23.413577807105188 7.9680276363481575 -87.09733198121818 0 255 0 255
19.529477498581905 8.197707180920505 -86.14527319969027 0 0 255 255
18.716404578229017 4.78219156821668 -85.90774794331315 0 0 255 255
24.71863358106581 1.565176298983479 -85.68065734721426 0 0 255 255
25.23517740295943 6.114513604212842 -85.72841070234125 0 0 255 255
17.342286409167286 6.653399845649565 -90.71137963825788 255 255 0 255
26.69698244115942 1.499469705155473 -91.01418061378438 0 255 255 255
26.302636166551004 2.844424583714437 -88.42185437021836 255 0 255 255
