ply
format ascii 1.0
comment VCGLIB generated
element vertex 9
property double x
property double y
property double z
property uchar red
property uchar green
property uchar blue
property uchar alpha
element face 0
property list uchar int vertex_indices
property uchar red
property uchar green
property uchar blue
property uchar alpha
end_header
-16.67937176584272 1.8539063829152864 -88.20322660969457 255 0 0 255
-19.165932703249297 9.755195514314426 -88.96878274774556 0 255 0 255
-19.982793337121876 2.6641185444668785 -87.73995369888382 0 0 255 255
-21.56320148374615 7.732845232665685 -87.81468523229356 0 0 255 255
-15.77512613042045 9.87973602353868 -87.49284531277695 0 0 255 255
-15.088753119107281 5.567751014213945 -87.02504359921357 0 0 255 255
-12.280516892945553 7.433207772613006 -91.96315088251329 255 255 0 255
-22.58241517751665 4.494048005899543 -93.06628342626848 0 255 255 255
-22.07215690441017 4.415560140072351 -90.4661108667219 255 0 255 255
