ply
format ascii 1.0
comment VCGLIB generated
element vertex 9
property double x
property double y
property double z
property uchar red
property uchar green
property uchar blue
property uchar alpha
element face 0
property list uchar int vertex_indices
property uchar red
property uchar green
property uchar blue
property uchar alpha
end_header
-20.27588957430485 10.65879259663797 -87.37764197738827 255 0 0 255
-22.982318797131963 19.929716216913345 -89.37253177150045 0 255 0 255
-24.039194785749373 11.811581412212197 -86.95553726075761 0 0 255 255
-25.332956856196688 17.277428922499478 -87.38293172042901 0 0 255 255
-18.501768857013282 20.13441649039853 -87.26385813625092 0 0 255 255
-18.304251202461952 14.831258739473427 -85.88417065110514 0 0 255 255
-14.738659363946645 17.78137335524399 -91.2574452781339 255 255 0 255
-26.326225673622993 13.945495005695154 -93.8462064126407 0 255 255 255
-25.85201055217759 14.098157472397794 -91.60492990241221 255 0 255 255
