ply
format ascii 1.0
comment VCGLIB generated
element vertex 7
property double x
property double y
property double z
property uchar red
property uchar green
property uchar blue
property uchar alpha
element face 0
property list uchar int vertex_indices
property uchar red
property uchar green
property uchar blue
property uchar alpha
end_header
17.05461896595518 -6.081041360290294 -87.61390121388482 255 0 0 255
18.626288537299967 -0.942242626996403 -86.64827763334213 0 255 0 255
20.63389030882075 -5.470568152812279 -83.6351596366129 0 0 255 255
14.288350332909927 -3.7754850211801347 -85.62903462246547 0 0 255 255
14.071420096709524 -2.321111947232314 -89.83807315311964 255 255 0 255
23.963601552335128 -4.564826956808979 -91.09903898513522 0 255 255 255
22.86563768833249 -5.332291528103246 -87.39455868186022 255 0 255 255
