ply
format ascii 1.0
comment VCGLIB generated
element vertex 7
property double x
property double y
property double z
property uchar red
property uchar green
property uchar blue
property uchar alpha
element face 0
property list uchar int vertex_indices
property uchar red
property uchar green
property uchar blue
property uchar alpha
end_header
-13.25489735624388 -4.482160221237159 -87.08984902805159 255 0 0 255
-14.679641997475844 0.6391673638612474 -87.20979390082634 0 255 0 255
-10.424427130056712 -1.9141760661342389 -85.15308753086123 0 0 255 255
-16.949237850938655 -2.855748871041527 -84.2333518772536 0 0 255 255
-9.454775270621269 -1.2010818668205 -89.75000471302874 255 255 0 255
-19.275245123617033 -3.212074312965541 -91.3841748545928 0 255 255 255
-18.541886822595757 -3.372483763870081 -87.63601173923631 255 0 255 255
