ply
format ascii 1.0
comment VCGLIB generated
element vertex 5
property double x
property double y
property double z
property uchar red
property uchar green
property uchar blue
property uchar alpha
element face 0
property list uchar int vertex_indices
property uchar red
property uchar green
property uchar blue
property uchar alpha
end_header
4.96260614947473 -18.03578743437042 -82.70624104781922 255 0 0 255
11.57126136920958 -14.495142325770232 -82.00472128735338 0 255 0 255
7.171228666511551 -10.232281300516615 -90.64951223433097 255 255 0 255
10.581506542386617 -16.6949477137429 -93.353157268713 0 255 255 255
9.916742406927295 -17.627185310869542 -87.52849931775746 255 0 255 255
