ply
format ascii 1.0
comment VCGLIB generated
element vertex 5
property double x
property double y
property double z
property uchar red
property uchar green
property uchar blue
property uchar alpha
element face 0
property list uchar int vertex_indices
property uchar red
property uchar green
property uchar blue
property uchar alpha
end_header
13.876663361023327 -13.055200941501067 -83.82399482164722 255 0 0 255
17.26659380710901 -8.7447351593926 -83.86691503271473 0 255 0 255
12.967969497486283 -6.935835986206206 -89.5453854318176 255 255 0 255
17.52607518061336 -11.573654101932533 -91.08029417212768 0 255 255 255
17.236043446901594 -11.996085820357607 -87.10880230718497 255 0 255 255
