ply
format ascii 1.0
comment VCGLIB generated
element vertex 5
property double x
property double y
property double z
property uchar red
property uchar green
property uchar blue
property uchar alpha
element face 0
property list uchar int vertex_indices
property uchar red
property uchar green
property uchar blue
property uchar alpha
end_header
-6.841222971872334 -16.912841300702063 -84.74548263676269 255 0 0 255
-10.76746588972161 -13.363974858649513 -85.14696665727526 0 255 0 255
-5.967764751446197 -9.867493772146704 -90.16660706041819 255 255 0 255
-9.653481655844786 -14.75888632130988 -93.1350749531375 0 255 255 255
-9.131183415750957 -16.26126028055016 -88.47810259942392 255 0 255 255
