ply
format ascii 1.0
comment VCGLIB generated
element vertex 9
property double x
property double y
property double z
property uchar red
property uchar green
property uchar blue
property uchar alpha
element face 0
property list uchar int vertex_indices
property uchar red
property uchar green
property uchar blue
property uchar alpha
end_header
24.170416569610147 8.99634377669797 -88.03045808498146 255 0 0 255
27.712808000655734 18.327546464560204 -89.98545824298444 0 255 0 255
22.343266809348975 14.244189767902494 -86.73147609057621 0 0 255 255
23.415279726189542 18.797464152508738 -88.40797332838432 0 0 255 255
28.185870551997986 10.110464798329371 -87.43193479812611 0 0 255 255
30.581061912101923 15.208010204134904 -87.83717845386998 0 0 255 255
19.840760259666503 16.77227295144663 -92.35470842422446 255 255 0 255
31.337186880641887 11.588455364048645 -94.01394935039303 0 255 255 255
30.298915386018543 11.860795972297163 -91.03136842998336 255 0 255 255
