ply
format ascii 1.0
comment VCGLIB generated
element vertex 5
property double x
property double y
property double z
property uchar red
property uchar green
property uchar blue
property uchar alpha
element face 0
property list uchar int vertex_indices
property uchar red
property uchar green
property uchar blue
property uchar alpha
end_header
3.579589528465476 -18.15009818543588 -82.85394388355364 255 0 0 255
-4.341614736243693 -16.7590303039593 -82.92128559718903 0 255 0 255
-0.396480465079021 -11.04844483101662 -90.75950251989653 255 255 0 255
-1.2726671062407284 -18.213310930122766 -93.9486900133925 0 255 255 255
-1.1482248074844899 -19.333443622191275 -87.96107284013527 255 0 255 255
