ply
format ascii 1.0
comment VCGLIB generated
element vertex 9
property double x
property double y
property double z
property uchar red
property uchar green
property uchar blue
property uchar alpha
element face 0
property list uchar int vertex_indices
property uchar red
property uchar green
property uchar blue
property uchar alpha
end_header
19.596328361836044 -1.4920149138323264 -97.90196366290677 255 0 0 255
21.988485807431683 7.448338735813319 -98.28294451042794 0 255 0 255
16.10388024365256 2.4331757084617847 -95.99892548550157 0 0 255 255
17.75860688000202 6.448403038317709 -96.52089815441333 0 0 255 255
23.79724593504858 -0.041556721627976856 -96.58238607174933 0 0 255 255
24.175696075988643 4.374121383369857 -96.79176313776654 0 0 255 255
15.920670850073826 4.226341137670137 -101.52810724224386 255 255 0 255
25.470021304649684 1.4639836494528051 -102.03696263965094 0 255 255 255
25.58517815028217 1.6245163501294135 -99.58399897905822 255 0 255 255
