ply
format ascii 1.0
comment VCGLIB generated
element vertex 7
property double x
property double y
property double z
property uchar red
property uchar green
property uchar blue
property uchar alpha
element face 0
property list uchar int vertex_indices
property uchar red
property uchar green
property uchar blue
property uchar alpha
end_header
-16.87755100545939 -6.903839898937743 -94.09899642284466 255 0 0 255
-18.68634532577439 -1.054109499664671 -94.69332292178365 0 255 0 255
-20.377035935115124 -4.464651707137124 -93.36401815216239 0 0 255 255
-15.630921057317359 -3.139472260673915 -93.69044211238949 0 0 255 255
-14.228325909269946 -2.748894228907246 -97.87468846878201 255 255 0 255
-22.165273694464695 -5.376477043254696 -99.51390978319097 0 255 255 255
-22.329066727227648 -5.277495800063443 -96.1527611532564 255 0 255 255
