ply
format ascii 1.0
comment VCGLIB generated
element vertex 10
property double x
property double y
property double z
property uchar red
property uchar green
property uchar blue
property uchar alpha
element face 0
property list uchar int vertex_indices
property uchar red
property uchar green
property uchar blue
property uchar alpha
end_header
-19.073081688110005 -0.25838763919847896 -94.55547966608056 255 0 0 255
-21.352276804024033 9.039252807904779 -94.56001766350548 0 255 0 255
-23.798362667403513 1.235788038736219 -94.3348461937316 0 0 255 255
-17.51667190405201 2.0497114513977914 -93.79755771695798 0 0 255 255
-18.02840489342886 7.3455379463170445 -93.654396954702 0 0 255 255
-24.293736210525267 5.82969177277989 -94.11653197645919 0 0 255 255
-23.338814176840785 7.838062453373036 -93.91987747203612 0 0 255 255
-16.008621720282015 5.731344125187148 -98.55518794612432 255 255 0 255
-25.20088414184567 3.2419088113059127 -98.97163615006639 0 255 255 255
-25.297771387351467 3.079084778695375 -96.74649646212946 255 0 255 255
