ply
format ascii 1.0
comment VCGLIB generated
element vertex 9
property double x
property double y
property double z
property uchar red
property uchar green
property uchar blue
property uchar alpha
element face 0
property list uchar int vertex_indices
property uchar red
property uchar green
property uchar blue
property uchar alpha
end_header
-21.476777656532278 9.737940060532619 -94.34794945655904 255 0 0 255
-22.662886955407487 19.561571260637074 -94.11623574656022 0 255 0 255
-19.489426351985443 17.850461095209354 -93.05535157749759 0 0 255 255
-18.4303361750097 12.175543421133064 -93.7252068783134 0 0 255 255
-26.105319812285646 16.50260305026828 -92.64862343318 0 0 255 255
-24.734493350640218 11.14001137717117 -93.33442581969047 0 0 255 255
-17.608635414082585 14.909945797445221 -96.75817499282407 255 255 0 255
-27.511347332571702 13.772257415159707 -98.14173182518498 0 255 255 255
-27.538646990175096 13.250408002965795 -95.52131928785397 255 0 255 255
