ply
format ascii 1.0
comment VCGLIB generated
element vertex 4
property double x
property double y
property double z
property uchar red
property uchar green
property uchar blue
property uchar alpha
element face 0
property list uchar int vertex_indices
property uchar red
property uchar green
property uchar blue
property uchar alpha
end_header
-14.426499342712194 -14.480383049378332 -93.02258677437962 0 255 0 255
-9.643960426494328 -12.951612856998388 -97.3967681321694 255 255 0 255
-14.577321224946974 -18.583689573463865 -100.21901309342265 0 255 255 255
-14.774758207155458 -18.369181455203442 -96.00907656021175 255 0 255 255
