ply
format ascii 1.0
comment VCGLIB generated
element vertex 8
property double x
property double y
property double z
property uchar red
property uchar green
property uchar blue
property uchar alpha
element face 0
property list uchar int vertex_indices
property uchar red
property uchar green
property uchar blue
property uchar alpha
end_header
13.815004842948625 -15.238444010642318 -95.47090155396978 255 0 0 255
15.982376786473072 -9.44665705112858 -96.05988551330867 0 255 0 255
12.952852864768342 -9.532407484998796 -95.4607454363479 0 0 255 255
17.243465669224737 -10.447091348677592 -95.23884101957496 0 0 255 255
14.642558698816202 -13.851506154406703 -94.88257605434907 0 0 255 255
11.83478915234512 -9.61892825475211 -99.50309120256348 255 255 0 255
18.19075828606671 -13.177232624667035 -101.8129800436193 0 255 255 255
18.57262050831156 -13.320723047032983 -98.77316565000243 255 0 255 255
