ply
format ascii 1.0
comment VCGLIB generated
element vertex 5
property double x
property double y
property double z
property uchar red
property uchar green
property uchar blue
property uchar alpha
element face 0
property list uchar int vertex_indices
property uchar red
property uchar green
property uchar blue
property uchar alpha
end_header
-0.6712989539962111 -22.400853039041298 -92.88111094887438 255 0 0 255
-5.223883891749545 -21.41749731361888 -92.27656705636069 0 255 0 255
-2.418304199025053 -17.45227607709025 -96.57401646264748 255 255 0 255
-3.4974717105939153 -22.99440365403323 -98.42451158179655 0 255 255 255
-3.2929294809764524 -23.2741249135562 -95.29764413658127 255 0 255 255
