ply
format ascii 1.0
comment VCGLIB generated
element vertex 8
property double x
property double y
property double z
property uchar red
property uchar green
property uchar blue
property uchar alpha
element face 0
property list uchar int vertex_indices
property uchar red
property uchar green
property uchar blue
property uchar alpha
end_header
16.30228498249776 -8.576812105063361 -97.25331744194538 255 0 0 255
19.110718863545067 -2.3539463436962347 -98.28328595879358 0 255 0 255
14.514859483968056 -4.991096472172815 -95.79097186505678 0 0 255 255
16.297681788322272 -2.126349082002209 -96.44935066760009 0 0 255 255
21.271894996017313 -5.121644118298583 -97.11851302947672 0 0 255 255
13.505186736198802 -3.052738508527681 -101.27189996360609 255 255 0 255
20.8424438338145 -7.183122182953522 -102.1873335789451 0 255 255 255
21.657505354049007 -6.621081237829092 -99.9986764078856 255 0 255 255
