ply
format ascii 1.0
comment VCGLIB generated
element vertex 5
property double x
property double y
property double z
property uchar red
property uchar green
property uchar blue
property uchar alpha
element face 0
property list uchar int vertex_indices
property uchar red
property uchar green
property uchar blue
property uchar alpha
end_header
-0.3737857134645375 -21.33461990483412 -91.98201229588136 255 0 0 255
4.011861707624551 -20.547274080301477 -92.14863448027785 0 255 0 255
1.2301418360215859 -16.0485571095973 -97.229556827356 255 255 0 255
1.7487586515360363 -22.47859743921255 -96.87654647738377 0 255 255 255
1.8157256609269257 -22.201549240170944 -94.26750731970343 255 0 255 255
