ply
format ascii 1.0
comment VCGLIB generated
element vertex 8
property double x
property double y
property double z
property uchar red
property uchar green
property uchar blue
property uchar alpha
element face 0
property list uchar int vertex_indices
property uchar red
property uchar green
property uchar blue
property uchar alpha
end_header
-14.43770724960138 -13.707885990304028 -93.8750431745012 255 0 0 255
-16.622116819132632 -7.63446246547513 -94.04859950768055 0 255 0 255
-13.550628769362401 -8.949214678607088 -93.28488964609794 0 0 255 255
-18.051348892108372 -9.177797523174403 -93.08128163282849 0 0 255 255
-16.16390868637884 -12.707600301193992 -92.99008495225877 0 0 255 255
-12.575808222711514 -8.102709975297365 -97.78365967920506 255 255 0 255
-19.150523535921014 -12.461560837807689 -100.18919843212973 0 255 255 255
-19.406429555622438 -12.665847441626202 -96.13476973777624 255 0 255 255
