ply
format ascii 1.0
comment VCGLIB generated
element vertex 9
property double x
property double y
property double z
property uchar red
property uchar green
property uchar blue
property uchar alpha
element face 0
property list uchar int vertex_indices
property uchar red
property uchar green
property uchar blue
property uchar alpha
end_header
22.089381810486515 8.22415864017616 -97.69425367342384 255 0 0 255
23.606405531957662 17.513449445136086 -96.568296782533 0 255 0 255
19.095636224124195 10.691239785318954 -96.355127671862 0 0 255 255
19.856922019488994 16.507501667131663 -96.39535929974117 0 0 255 255
26.085246933476004 15.25181002806032 -95.68082345077494 0 0 255 255
26.020940616079418 9.871021272097906 -96.18705761213359 0 0 255 255
18.670903765732966 12.725671766812088 -101.87988097662003 255 255 0 255
28.39430614140261 12.519485707383497 -101.11005096056354 0 255 255 255
28.125524809063105 12.467797635123524 -98.66506782427365 255 0 255 255
