ply
format ascii 1.0
comment VCGLIB generated
element vertex 9
property double x
property double y
property double z
property uchar red
property uchar green
property uchar blue
property uchar alpha
element face 0
property list uchar int vertex_indices
property uchar red
property uchar green
property uchar blue
property uchar alpha
end_header
-22.92411917788145 5.141270207914538 -85.38071096890101 255 0 0 255
-24.700984209853353 14.62715681903624 -87.16640969555905 0 255 0 255
-25.716998732892392 6.927326656172723 -83.70777331400318 0 0 255 255
-27.523255958330317 11.448283923807939 -84.60773051110884 0 0 255 255
-21.03059789093891 14.177179716671297 -85.58249003009955 0 0 255 255
-20.66301911388761 10.16200279750559 -84.54128572732746 0 0 255 255
-18.248319499779008 11.227013108998172 -89.38505766073891 255 255 0 255
-29.45641765734166 8.6570061167332 -88.62671333088173 0 255 255 255
-28.59942541358619 9.05765843353227 -86.21593072536714 255 0 255 255
