ply
format ascii 1.0
comment VCGLIB generated
element vertex 5
property double x
property double y
property double z
property uchar red
property uchar green
property uchar blue
property uchar alpha
element face 0
property list uchar int vertex_indices
property uchar red
property uchar green
property uchar blue
property uchar alpha
end_header
-16.348990959895563 -17.344699146031978 -83.45325855413371 255 0 0 255
-18.18334328345068 -11.663782641681689 -82.73644582756255 0 255 0 255
-14.139938896192106 -11.067137549257144 -86.40729582887366 255 255 0 255
-20.272806392546578 -15.24043537334314 -86.74380467489352 0 255 255 255
-19.10385334557211 -15.450499435723636 -83.66886460640649 255 0 255 255
