ply
format ascii 1.0
comment VCGLIB generated
element vertex 7
property double x
property double y
property double z
property uchar red
property uchar green
property uchar blue
property uchar alpha
element face 0
property list uchar int vertex_indices
property uchar red
property uchar green
property uchar blue
property uchar alpha
end_header
22.719264942709152 -0.5233730318855159 -86.16331747771653 255 0 0 255
23.95574633054131 4.724788567929628 -86.87909661638778 0 255 0 255
20.458012555083926 2.306255844167996 -85.1920332719247 0 0 255 255
25.674153110109277 1.5231085185788338 -84.25425691030966 0 0 255 255
18.802028534267116 3.256300273290911 -89.38253403598684 255 255 0 255
28.339798470698952 0.8811140879474841 -89.71266028585703 0 255 255 255
27.79242390991925 0.979717857284248 -86.58530478515532 255 0 255 255
