ply
format ascii 1.0
comment VCGLIB generated
element vertex 5
property double x
property double y
property double z
property uchar red
property uchar green
property uchar blue
property uchar alpha
element face 0
property list uchar int vertex_indices
property uchar red
property uchar green
property uchar blue
property uchar alpha
end_header
1.8867204119526146 -23.89237620482717 -81.1393250332591 255 0 0 255
-6.954373259707045 -22.441674114067574 -80.35559061046267 0 255 0 255
-2.995119403390243 -17.522931188598708 -87.26983065574129 255 255 0 255
-4.942049501301884 -24.668873051917913 -88.28519590463267 0 255 255 255
-4.213177236869284 -24.585531130349295 -83.41954054579725 255 0 255 255
