ply
format ascii 1.0
comment VCGLIB generated
element vertex 10
property double x
property double y
property double z
property uchar red
property uchar green
property uchar blue
property uchar alpha
element face 0
property list uchar int vertex_indices
property uchar red
property uchar green
property uchar blue
property uchar alpha
end_header
27.45837025060611 17.57356700436372 -90.00104923466237 255 0 0 255
28.609350135310375 26.872569861799427 -93.49555425748731 0 255 0 255
25.847217614243316 25.972303317942128 -90.44335558132155 0 0 255 255
28.389775473522473 26.46687708176193 -92.49357564760965 0 0 255 255
32.300128468586244 23.73038699739765 -92.0591982025785 0 0 255 255
31.601589698625872 19.120840837336754 -89.69867507592491 0 0 255 255
26.555831852693146 22.738878007897142 -88.7865662431025 0 0 255 255
21.973078311415403 23.007664543758505 -91.59245874891133 255 255 0 255
32.88308221465556 20.07849516777825 -95.63789079567951 0 255 255 255
33.007525692697826 20.673583254230127 -93.22284696163601 255 0 255 255
