ply
format ascii 1.0
comment VCGLIB generated
element vertex 5
property double x
property double y
property double z
property uchar red
property uchar green
property uchar blue
property uchar alpha
element face 0
property list uchar int vertex_indices
property uchar red
property uchar green
property uchar blue
property uchar alpha
end_header
13.15115427962716 -20.742665923957414 -82.57488567188288 255 0 0 255
17.03941281210659 -17.263743857070338 -83.86581130078591 0 255 0 255
12.312962461387984 -15.391768304837925 -88.17735956510984 255 255 0 255
15.708941325860728 -20.259367707601385 -89.65352878796052 0 255 255 255
16.42376827303373 -20.1452618584973 -85.44858328532172 255 0 255 255
