ply
format ascii 1.0
comment VCGLIB generated
element vertex 7
property double x
property double y
property double z
property uchar red
property uchar green
property uchar blue
property uchar alpha
element face 0
property list uchar int vertex_indices
property uchar red
property uchar green
property uchar blue
property uchar alpha
end_header
-19.910376855068094 -9.085344111230558 -84.80849689461073 255 0 0 255
-20.899664590819462 -3.9992587460905815 -84.32711281840331 0 255 0 255
-22.71406777851401 -7.21666552163612 -81.40482072563627 0 0 255 255
-17.763708227749554 -6.004412186886579 -83.74930921759426 0 0 255 255
-16.501077722006443 -4.917000395908026 -86.53754090875921 255 255 0 255
-25.264703283831473 -7.431653585730249 -87.1616305729157 0 255 255 255
-24.77323514372327 -7.27255001493886 -84.45376578859181 255 0 255 255
