ply
format ascii 1.0
comment VCGLIB generated
element vertex 9
property double x
property double y
property double z
property uchar red
property uchar green
property uchar blue
property uchar alpha
element face 0
property list uchar int vertex_indices
property uchar red
property uchar green
property uchar blue
property uchar alpha
end_header
24.735035729539096 6.684086340614442 -86.98781830894248 255 0 0 255
27.035104692707527 15.591711643941913 -88.93524982423162 0 255 0 255
24.36093854769931 15.910590392363293 -87.41492253093854 0 0 255 255
22.391393149231035 11.176999726277764 -85.6821857636756 0 0 255 255
27.626833724566513 8.557323910672235 -86.16004594538016 0 0 255 255
29.20490798700989 13.09632687932488 -86.78237718904603 0 0 255 255
19.99800357880123 13.158514925633508 -90.46743412274739 255 255 0 255
30.94721800101793 9.389247701382336 -91.10563401801257 0 255 255 255
30.42611845888979 10.068411580690402 -88.75275675807677 255 0 255 255
