ply
format ascii 1.0
comment VCGLIB generated
element vertex 10
property double x
property double y
property double z
property uchar red
property uchar green
property uchar blue
property uchar alpha
element face 0
property list uchar int vertex_indices
property uchar red
property uchar green
property uchar blue
property uchar alpha
end_header
-26.34858042918509 16.20938669723877 -88.01732960225567 255 0 0 255
-27.956857524288072 24.35469537091886 -91.31003168741799 0 255 0 255
-24.335620017433424 24.064087080933064 -88.91497719606542 0 0 255 255
-26.57145534832164 25.09949182629523 -90.29292975112301 0 0 255 255
-30.71711264747728 22.09813169009115 -89.20076326739752 0 0 255 255
-29.63628413453899 17.898897395425358 -87.21645335805755 0 0 255 255
-24.966701606484566 20.14212382454589 -86.81876505855652 0 0 255 255
-21.391850130472218 21.649018514554037 -90.73191818092783 255 255 0 255
-32.58699005256721 18.464708604048372 -91.5063077213335 0 255 255 255
-32.26744794785456 19.004000811382475 -90.03283843394597 255 0 255 255
