ply
format ascii 1.0
comment VCGLIB generated
element vertex 7
property double x
property double y
property double z
property uchar red
property uchar green
property uchar blue
property uchar alpha
element face 0
property list uchar int vertex_indices
property uchar red
property uchar green
property uchar blue
property uchar alpha
end_header
-20.264451403626317 -1.7368161356555734 -84.98381737788758 255 0 0 255
-21.388986696494698 3.6048650836106786 -85.11627015144805 0 255 0 255
-23.084670592928585 0.12860339386962139 -82.23152111670333 0 0 255 255
-17.919081650163484 0.8864565441553331 -84.76012052576174 0 0 255 255
-16.903005302735778 1.808028002554856 -88.11078518675723 255 255 0 255
-26.501399313582922 0.11533830095754638 -87.03666605109223 0 255 255 255
-25.06229050321052 0.3277048397012017 -84.2128446045746 255 0 255 255
