ply
format ascii 1.0
comment VCGLIB generated
element vertex 7
property double x
property double y
property double z
property uchar red
property uchar green
property uchar blue
property uchar alpha
element face 0
property list uchar int vertex_indices
property uchar red
property uchar green
property uchar blue
property uchar alpha
end_header
22.040208903053838 -7.8045918397208816 -86.76367125613689 255 0 0 255
22.661659078837832 -2.2899202352126977 -86.72035106053934 0 255 0 255
19.657876958818186 -5.168785792769972 -85.49021922582996 0 0 255 255
25.203775941634305 -5.790323903542292 -83.74096625628691 0 0 255 255
17.839088885483243 -4.669501903170706 -87.96465726506828 255 255 0 255
26.637233835317048 -6.43753239393703 -89.23110067592454 0 255 255 255
26.37392139744005 -6.10872283525395 -86.29740698845109 255 0 255 255
