ply
format ascii 1.0
comment VCGLIB generated
element vertex 5
property double x
property double y
property double z
property uchar red
property uchar green
property uchar blue
property uchar alpha
element face 0
property list uchar int vertex_indices
property uchar red
property uchar green
property uchar blue
property uchar alpha
end_header
2.9400618111452905 -24.164738543262896 -81.75831308846023 255 0 0 255
11.27004726670302 -21.371030303102955 -82.16843481564442 0 255 0 255
5.908552011687376 -17.27213233734487 -88.183815786601 255 255 0 255
8.098387010897364 -24.31611203486777 -89.91934344124033 0 255 255 255
8.102352826702809 -24.419180442302405 -85.05657529794024 255 0 255 255
