ply
format ascii 1.0
comment VCGLIB generated
element vertex 7
property double x
property double y
property double z
property uchar red
property uchar green
property uchar blue
property uchar alpha
element face 0
property list uchar int vertex_indices
property uchar red
property uchar green
property uchar blue
property uchar alpha
end_header
-12.066647251131 -2.832219839255391 -84.84607364994974 255 0 0 255
-14.449022444965754 1.3676544465436038 -86.14965377596434 0 255 0 255
-14.714338107993832 -1.0524297729034355 -83.28232092367122 0 0 255 255
-11.25539898799759 0.19206243789552602 -86.10851443197876 0 0 255 255
-10.897858769632698 0.2906765251980836 -89.04811069090746 255 255 0 255
-17.917032874445894 -4.511934398483703 -88.80228954125872 0 255 255 255
-17.126762122207367 -3.2065855700230923 -85.80565719052336 255 0 255 255
