ply
format ascii 1.0
comment VCGLIB generated
element vertex 5
property double x
property double y
property double z
property uchar red
property uchar green
property uchar blue
property uchar alpha
element face 0
property list uchar int vertex_indices
property uchar red
property uchar green
property uchar blue
property uchar alpha
end_header
-3.244053324879032 -12.05936811881573 -79.82601568485177 255 0 0 255
-6.83740901662299 -9.479401731161019 -80.81963852410203 0 255 0 255
-3.200910439756055 -7.89451637949513 -87.052081731606 255 255 0 255
-6.3184904875275265 -13.812029310694463 -86.84605838057392 0 255 255 255
-5.7319966038770005 -12.795645344785196 -83.01667978255092 255 0 255 255
