ply
format ascii 1.0
comment VCGLIB generated
element vertex 9
property double x
property double y
property double z
property uchar red
property uchar green
property uchar blue
property uchar alpha
element face 0
property list uchar int vertex_indices
property uchar red
property uchar green
property uchar blue
property uchar alpha
end_header
-16.936714962973163 9.446224211646687 -87.0992978197501 255 0 0 255
-19.373282204770945 15.751839948648849 -87.87451722816692 0 255 0 255
-20.407013980553238 10.69162867106432 -86.19051305559815 0 0 255 255
-16.7119336565032 16.213160160516587 -87.44804811145141 0 0 255 255
-15.629798526107695 11.496433218197952 -86.72455321087389 0 0 255 255
-21.675256231373282 14.793716807435398 -86.53097384003627 0 0 255 255
-14.682231993409786 14.05484511225768 -91.23254787353218 255 255 0 255
-24.592840151937246 10.925090655210086 -89.79071721758932 0 255 255 255
-23.200073712100686 11.238515258084988 -88.40961509460965 255 0 255 255
