ply
format ascii 1.0
comment VCGLIB generated
element vertex 5
property double x
property double y
property double z
property uchar red
property uchar green
property uchar blue
property uchar alpha
element face 0
property list uchar int vertex_indices
property uchar red
property uchar green
property uchar blue
property uchar alpha
end_header
10.655894273318463 -12.04595468178394 -81.01139691689144 255 0 0 255
14.884002683233573 -9.426643612042245 -81.5853544815341 0 255 0 255
10.343245588103247 -7.621596530211733 -87.94454893917319 255 255 0 255
13.449181148462685 -13.678747858640193 -87.26950772335373 0 255 255 255
13.4522431969344 -12.734301263970295 -84.40555350173871 255 0 255 255
