ply
format ascii 1.0
comment VCGLIB generated
element vertex 8
property double x
property double y
property double z
property uchar red
property uchar green
property uchar blue
property uchar alpha
element face 0
property list uchar int vertex_indices
property uchar red
property uchar green
property uchar blue
property uchar alpha
end_header
22.417102435298197 2.754363491749432 -87.24032707814915 255 0 0 255
24.423868007280834 7.758999884112356 -88.1290326054224 0 255 0 255
25.37794106625953 4.514750667517127 -85.98625405177947 0 0 255 255
22.473134667442828 7.810867209469992 -88.47201464140784 0 0 255 255
20.994411658492936 4.480630677477899 -87.09137730540277 0 0 255 255
19.975587621439267 6.066939356612101 -90.53041236189704 255 255 0 255
27.70969864721765 2.2660955900550714 -90.5579974954353 0 255 255 255
27.100634931330276 3.5010870314369447 -88.06416337755613 255 0 255 255
