ply
format ascii 1.0
comment VCGLIB generated
element vertex 9
property double x
property double y
property double z
property uchar red
property uchar green
property uchar blue
property uchar alpha
element face 0
property list uchar int vertex_indices
property uchar red
property uchar green
property uchar blue
property uchar alpha
end_header
23.357872084121688 9.772049307412287 -88.32418030108028 255 0 0 255
25.1023153994024 17.01453706637541 -89.56699811018397 0 255 0 255
26.651770874959144 11.508993784296017 -87.52165711859462 0 0 255 255
27.366831675396117 15.799727404389907 -88.01091556213215 0 0 255 255
21.48951899459544 11.470353181263663 -88.08130023666888 0 0 255 255
22.45040237688665 16.79985568235445 -88.89752433563271 0 0 255 255
20.69056664364259 14.448451433408406 -92.32309037812246 255 255 0 255
30.730899607315813 11.57461329992799 -91.34360515200622 0 255 255 255
28.846333278648974 12.041620034889153 -89.47513167176801 255 0 255 255
