ply
format ascii 1.0
comment VCGLIB generated
element vertex 8
property double x
property double y
property double z
property uchar red
property uchar green
property uchar blue
property uchar alpha
element face 0
property list uchar int vertex_indices
property uchar red
property uchar green
property uchar blue
property uchar alpha
end_header
-15.19873104979274 2.420418340602275 -86.0488899178209 255 0 0 255
-17.755034443087702 7.1211166633188645 -86.5658743757114 0 255 0 255
-18.115183271132874 4.750727670107107 -84.68902056212175 0 0 255 255
-13.428283812951738 4.54744923100613 -86.2566368512561 0 0 255 255
-14.37467381331129 6.92315859757996 -87.41902710373016 0 0 255 255
-12.99232221117078 5.670289790848969 -89.75227876574365 255 255 0 255
-21.32215581282719 2.5637264589249575 -89.20225101782921 0 255 255 255
-20.506897260678258 3.6128463726830464 -86.98163947554674 255 0 255 255
