ply
format ascii 1.0
comment VCGLIB generated
element vertex 9
property double x
property double y
property double z
property uchar red
property uchar green
property uchar blue
property uchar alpha
element face 0
property list uchar int vertex_indices
property uchar red
property uchar green
property uchar blue
property uchar alpha
end_header
26.473734868382223 18.10171699002113 -89.7891073186406 255 0 0 255
26.786575237804076 25.749742647897612 -87.82569153885893 0 255 0 255
29.176822224889392 24.524397046241546 -86.45014489932205 0 0 255 255
28.90003495753405 19.77198860726974 -87.35411308215168 0 0 255 255
24.443142388021293 20.61187161217572 -88.58123261579775 0 0 255 255
25.077555822755677 24.270762166140333 -88.3632919694816 0 0 255 255
23.193862565866397 23.57416806344293 -90.34491291377286 255 255 0 255
31.93965827678094 22.00129563354338 -89.11482362896356 0 255 255 255
30.6374261254806 22.006284984388852 -88.07580900860279 255 0 255 255
