ply
format ascii 1.0
comment VCGLIB generated
element vertex 7
property double x
property double y
property double z
property uchar red
property uchar green
property uchar blue
property uchar alpha
element face 0
property list uchar int vertex_indices
property uchar red
property uchar green
property uchar blue
property uchar alpha
end_header
19.272050058901407 -2.7109889306591874 -86.28665137184787 255 0 0 255
22.069719298557228 1.3118756858032725 -87.97162491812375 0 255 0 255
18.845371469916604 0.5146052244896673 -87.24394888888742 0 0 255 255
22.327022887796282 -0.7100674745009634 -85.16627890847823 0 0 255 255
18.220199843537593 0.34096319429874455 -89.87085635777343 255 255 0 255
24.369816218004082 -4.970027302011999 -90.07273099279367 0 255 255 255
23.917617125235275 -3.299526983333532 -87.09549381505803 255 0 255 255
