ply
format ascii 1.0
comment VCGLIB generated
element vertex 5
property double x
property double y
property double z
property uchar red
property uchar green
property uchar blue
property uchar alpha
element face 0
property list uchar int vertex_indices
property uchar red
property uchar green
property uchar blue
property uchar alpha
end_header
-8.6808533782794 -8.298946538958777 -81.61057477252447 255 0 0 255
-11.288555897933103 -3.833779005860407 -84.17950779006534 0 255 0 255
-7.161368845476673 -5.442502886646478 -87.75323448960035 255 255 0 255
-12.920137388248257 -10.124706359866014 -87.86379754210441 0 255 255 255
-11.772135844084037 -8.729578525896414 -84.44077983348005 255 0 255 255
