ply
format ascii 1.0
comment VCGLIB generated
element vertex 7
property double x
property double y
property double z
property uchar red
property uchar green
property uchar blue
property uchar alpha
element face 0
property list uchar int vertex_indices
property uchar red
property uchar green
property uchar blue
property uchar alpha
end_header
24.239408356618256 -3.1182965859555223 -86.27475049318623 255 0 0 255
25.412263841817897 2.5011382190245364 -86.94556537097667 0 255 0 255
22.254667721713602 0.6779846992592307 -84.83394041774932 0 0 255 255
27.29321998635688 -0.028428070228261992 -83.71533434903989 0 0 255 255
19.806153208909056 0.721882851830701 -88.37959815596463 255 255 0 255
29.68274316906178 -1.961967898650851 -90.30754293439111 0 255 255 255
29.008576705475193 -0.985574376496313 -86.59113394796849 255 0 255 255
