ply
format ascii 1.0
comment VCGLIB generated
element vertex 9
property double x
property double y
property double z
property uchar red
property uchar green
property uchar blue
property uchar alpha
element face 0
property list uchar int vertex_indices
property uchar red
property uchar green
property uchar blue
property uchar alpha
end_header
28.19784154810673 10.192740956747706 -88.12545432002268 255 0 0 255
30.805945274857564 20.08761335303333 -91.04686515747728 0 255 0 255
26.662073180575636 15.476333743094216 -86.48954791173126 0 0 255 255
31.39432258514475 16.351070869865307 -87.23996174875101 0 0 255 255
30.419663807988073 11.951466255933891 -87.26253190826368 0 0 255 255
27.603054816817064 19.82319713914234 -87.82528644585902 0 0 255 255
23.656625538619856 17.73636614523795 -91.5169761367978 255 255 0 255
33.59423146253961 13.812739302744278 -92.13306120880281 0 255 255 255
33.12444731813865 13.992133095025347 -89.98343729091539 255 0 255 255
