ply
format ascii 1.0
comment VCGLIB generated
element vertex 7
property double x
property double y
property double z
property uchar red
property uchar green
property uchar blue
property uchar alpha
element face 0
property list uchar int vertex_indices
property uchar red
property uchar green
property uchar blue
property uchar alpha
end_header
-18.763685654917502 1.0439431745467758 -84.59910959178595 255 0 0 255
-20.877302062013307 6.893721303725718 -85.75770434912249 0 255 0 255
-22.506006177384144 3.5870212512589603 -82.86041242724352 0 0 255 255
-16.993357743516924 5.342150530553805 -82.76581089728083 0 0 255 255
-14.712789027590453 5.441861813596788 -87.0753319813577 255 255 0 255
-23.660845669750465 1.405623500365662 -87.82840655238364 0 255 255 255
-23.456642432797075 2.1902088319287696 -84.96020325633111 255 0 255 255
