ply
format ascii 1.0
comment VCGLIB generated
element vertex 8
property double x
property double y
property double z
property uchar red
property uchar green
property uchar blue
property uchar alpha
element face 0
property list uchar int vertex_indices
property uchar red
property uchar green
property uchar blue
property uchar alpha
end_header
-25.37244211602285 17.692568619714415 -89.85843356183607 255 0 0 255
-27.57159865925185 25.08744389035835 -93.42902104524705 0 255 0 255
-29.044633864452376 18.35589330694985 -89.61685450884323 0 0 255 255
-29.709956724717127 23.12036159059732 -92.49105035653434 0 0 255 255
-24.380732878262947 22.5169454612668 -88.7919177472057 0 0 255 255
-21.3463846502536 23.95519803064225 -91.70253200256168 255 255 0 255
-30.754083112557538 19.184232436523647 -94.22133963165835 0 255 255 255
-30.531742840189878 19.29705429547369 -92.53774258653631 255 0 255 255
