ply
format ascii 1.0
comment VCGLIB generated
element vertex 7
property double x
property double y
property double z
property uchar red
property uchar green
property uchar blue
property uchar alpha
element face 0
property list uchar int vertex_indices
property uchar red
property uchar green
property uchar blue
property uchar alpha
end_header
25.511999443583015 3.9604301146802676 -87.42859184825821 255 0 0 255
27.271544532209465 9.320341630238179 -87.7428409636936 0 255 0 255
24.325151094892952 7.287695520928377 -85.72017424572539 0 0 255 255
29.439243756380527 6.263631499205165 -85.42175913083547 0 0 255 255
21.87364685536848 7.7091526669285715 -89.9049168657393 255 255 0 255
31.776252414826644 5.3189397241284695 -90.92044951506047 0 255 255 255
30.976683428719255 5.657472849041536 -87.8066546625901 255 0 255 255
