ply
format ascii 1.0
comment VCGLIB generated
element vertex 5
property double x
property double y
property double z
property uchar red
property uchar green
property uchar blue
property uchar alpha
element face 0
property list uchar int vertex_indices
property uchar red
property uchar green
property uchar blue
property uchar alpha
end_header
-3.7997493105715794 -18.43651637116082 -82.06225247773703 255 0 0 255
-7.103049618161638 -15.99761830904103 -81.86973193678712 0 255 0 255
-4.021581812623755 -11.80806732708584 -86.78447178611476 255 255 0 255
-6.9801851762092255 -16.824594917765637 -89.08108760045022 0 255 255 255
-6.609427462996635 -17.497035415779948 -84.91034941085226 255 0 255 255
