ply
format ascii 1.0
comment VCGLIB generated
element vertex 5
property double x
property double y
property double z
property uchar red
property uchar green
property uchar blue
property uchar alpha
element face 0
property list uchar int vertex_indices
property uchar red
property uchar green
property uchar blue
property uchar alpha
end_header
5.77110750240994 -20.86296641028544 -81.202588942608 255 0 0 255
-0.8813989197388121 -19.4034726342271 -80.34919607301498 0 255 0 255
1.6996835322932462 -13.532716697858827 -86.63807124327857 255 255 0 255
0.6146230092917908 -20.30967179832193 -89.38063539780467 0 255 255 255
1.2598189291786852 -20.910691674800745 -84.82544929295119 255 0 255 255
