ply
format ascii 1.0
comment VCGLIB generated
element vertex 7
property double x
property double y
property double z
property uchar red
property uchar green
property uchar blue
property uchar alpha
element face 0
property list uchar int vertex_indices
property uchar red
property uchar green
property uchar blue
property uchar alpha
end_header
-15.48284425967549 -6.434562281853566 -84.72779420386378 255 0 0 255
-16.55381391795511 -0.3369168394301667 -84.43334282837777 0 255 0 255
-18.728536015190862 -3.5369585093357125 -81.63974746902342 0 0 255 255
-13.496736241009998 -3.491084334183844 -82.05511205920526 0 0 255 255
-11.17467584749583 -2.523039532190757 -85.98390482454901 255 255 0 255
-20.70274913882011 -4.79424967962089 -88.02372518656469 0 255 255 255
-20.408968281593275 -4.289974687210449 -84.7509789440467 255 0 255 255
