ply
format ascii 1.0
comment VCGLIB generated
element vertex 5
property double x
property double y
property double z
property uchar red
property uchar green
property uchar blue
property uchar alpha
element face 0
property list uchar int vertex_indices
property uchar red
property uchar green
property uchar blue
property uchar alpha
end_header
-10.794858254963483 -14.716249411331294 -84.39417539043991 255 0 0 255
-13.643397175511662 -9.74660269395092 -82.72854645242681 0 255 0 255
-8.671735892437013 -8.770422684592422 -86.55311221263011 255 255 0 255
-13.83179975704239 -13.236828226834092 -90.14747030361269 0 255 255 255
-13.928209462594374 -13.046000885744867 -85.70591564547533 255 0 255 255
