ply
format ascii 1.0
comment VCGLIB generated
element vertex 5
property double x
property double y
property double z
property uchar red
property uchar green
property uchar blue
property uchar alpha
element face 0
property list uchar int vertex_indices
property uchar red
property uchar green
property uchar blue
property uchar alpha
end_header
21.582711188321603 -10.600804751212394 -83.44449071923982 255 0 0 255
24.145919815241896 -5.247916631556852 -83.37194138704122 0 255 0 255
18.247004727583555 -5.4737464293203715 -87.5745712814106 255 255 0 255
24.244475725869812 -10.722732466514714 -89.2832460938805 0 255 255 255
24.15015070580631 -9.3729676483213 -84.97551522926003 255 0 255 255
