ply
format ascii 1.0
comment VCGLIB generated
element vertex 9
property double x
property double y
property double z
property uchar red
property uchar green
property uchar blue
property uchar alpha
element face 0
property list uchar int vertex_indices
property uchar red
property uchar green
property uchar blue
property uchar alpha
end_header
-21.043709914683213 7.728932260420779 -85.6119958169099 255 0 0 255
-25.019665561187203 16.67594032969249 -88.98920574382606 0 255 0 255
-24.558933630454092 8.15003950484082 -85.0147910725914 0 0 255 255
-26.330858110405025 12.882133015562877 -86.0501828601517 0 0 255 255
-22.251087517274648 17.094893131409243 -86.71092354131632 0 0 255 255
-21.110314648139322 13.025193090475016 -84.8791996140597 0 0 255 255
-17.776901557564443 14.624965245962116 -89.62863385294672 255 255 0 255
-26.978441559473126 8.989323586286888 -90.46387943535922 0 255 255 255
-26.586586107499798 9.772973469500094 -88.08678841189413 255 0 255 255
