ply
format ascii 1.0
comment VCGLIB generated
element vertex 10
property double x
property double y
property double z
property uchar red
property uchar green
property uchar blue
property uchar alpha
element face 0
property list uchar int vertex_indices
property uchar red
property uchar green
property uchar blue
property uchar alpha
end_header
21.697942988974365 12.948881811134477 -92.50396218135194 255 0 0 255
21.58734198741728 19.79682101515466 -92.22738261999854 0 255 0 255
18.66331640132436 17.892523720449777 -92.02002617094166 0 0 255 255
18.73052374548008 13.656588990491137 -91.5114794333506 0 0 255 255
23.15853965961731 19.445314179843432 -91.39945633415175 0 0 255 255
23.901427118581925 17.334131732440103 -90.79290256827937 0 0 255 255
23.874021811591867 12.765731794595517 -90.5795945367106 0 0 255 255
17.296274022793853 16.301093846820102 -94.5672694710847 255 255 0 255
27.404957650887493 14.825176079654113 -94.89715793473164 0 255 255 255
26.165363378992765 14.950606460998863 -93.14523945658978 255 0 255 255
