ply
format ascii 1.0
comment VCGLIB generated
element vertex 9
property double x
property double y
property double z
property uchar red
property uchar green
property uchar blue
property uchar alpha
element face 0
property list uchar int vertex_indices
property uchar red
property uchar green
property uchar blue
property uchar alpha
end_header
-20.404637397482887 8.158275143519933 -89.84325076404286 255 0 0 255
-22.098466355153086 16.070694165138075 -90.23113168763211 0 255 0 255
-23.780870515359553 14.310769971492686 -88.60039798140625 0 0 255 255
-23.091855652124192 9.659915163838523 -88.25123436668511 0 0 255 255
-18.413445011622052 10.722052327745441 -89.38994918189454 0 0 255 255
-19.249727071595817 15.66074604999704 -89.64195147416638 0 0 255 255
-17.24343441096901 12.991553508956065 -92.50068622897953 255 255 0 255
-26.95683091668394 10.25504800543876 -92.0449182756424 0 255 255 255
-25.564096624462533 11.092749462378755 -90.20836892269315 255 0 255 255
