ply
format ascii 1.0
comment VCGLIB generated
element vertex 5
property double x
property double y
property double z
property uchar red
property uchar green
property uchar blue
property uchar alpha
element face 0
property list uchar int vertex_indices
property uchar red
property uchar green
property uchar blue
property uchar alpha
end_header
8.969429988096717 -11.662034235749715 -83.82067381601424 255 0 0 255
13.671050640155139 -9.437085258494513 -85.06348392583313 0 255 0 255
9.433350321460377 -7.305823051489931 -90.14680248723643 255 255 0 255
11.02658703865041 -12.898246994795041 -90.99310148739858 0 255 255 255
12.023086097649 -12.045979659147768 -86.58286717561745 255 0 255 255
