ply
format ascii 1.0
comment VCGLIB generated
element vertex 10
property double x
property double y
property double z
property uchar red
property uchar green
property uchar blue
property uchar alpha
element face 0
property list uchar int vertex_indices
property uchar red
property uchar green
property uchar blue
property uchar alpha
end_header
-15.864758185443186 0.29422728697167155 -88.03964568177275 255 0 0 255
-19.33133870042179 6.721162999578631 -88.77840806414397 0 255 0 255
-20.781845481583474 6.545572429512283 -88.46587264040255 0 0 255 255
-20.895366951913402 3.957114712582986 -87.99389027178572 0 0 255 255
-19.247741572904715 -0.19428219736807772 -87.42001615352468 0 0 255 255
-15.65488438702489 3.1351519500492273 -88.00355171832572 0 0 255 255
-17.512293236603004 6.657998120773883 -88.12544588245453 0 0 255 255
-14.756021151612892 4.2852199864245035 -90.88605627924986 255 255 0 255
-22.349590899910808 0.7038905014629364 -92.04374557301301 0 255 255 255
-21.85706404991742 1.1147394882789783 -89.96598467857407 255 0 255 255
