ply
format ascii 1.0
comment VCGLIB generated
element vertex 5
property double x
property double y
property double z
property uchar red
property uchar green
property uchar blue
property uchar alpha
element face 0
property list uchar int vertex_indices
property uchar red
property uchar green
property uchar blue
property uchar alpha
end_header
3.899598371488531 -11.989104991701264 -82.63383387332007 255 0 0 255
8.240671094208428 -12.223301445441965 -83.09223236849539 0 255 0 255
5.544403774210476 -8.074415568368835 -89.67600257988916 255 255 0 255
5.588466743152173 -13.728547434779223 -90.80263866841369 0 255 255 255
5.748841764364984 -13.568019255573077 -85.25067051786033 255 0 255 255
