ply
format ascii 1.0
comment VCGLIB generated
element vertex 10
property double x
property double y
property double z
property uchar red
property uchar green
property uchar blue
property uchar alpha
element face 0
property list uchar int vertex_indices
property uchar red
property uchar green
property uchar blue
property uchar alpha
end_header
18.784081048516267 2.7501028788931237 -89.98218404992154 255 0 0 255
21.133331629942067 10.447768423954342 -91.74540087495126 0 255 0 255
22.206198923098167 10.026854108931811 -90.66287815197 0 0 255 255
22.93458132509701 7.535019274269345 -89.89545395390616 0 0 255 255
21.779303778982413 3.6195552116067713 -89.18565718816919 0 0 255 255
18.039183889663796 5.562794717968759 -89.91592400019051 0 0 255 255
19.00505689965162 9.60106624428823 -90.1483748886847 0 0 255 255
16.947438236592873 6.955423563590365 -92.90641890215413 255 255 0 255
24.940116131147477 4.555601499374616 -93.98702324351385 0 255 255 255
24.321376791579574 5.09884002438139 -91.8815027409614 255 0 255 255
