ply
format ascii 1.0
comment VCGLIB generated
element vertex 7
property double x
property double y
property double z
property uchar red
property uchar green
property uchar blue
property uchar alpha
element face 0
property list uchar int vertex_indices
property uchar red
property uchar green
property uchar blue
property uchar alpha
end_header
-12.610852463905836 -5.389407444024519 -87.78708120267333 255 0 0 255
-15.599973231368287 -1.1889784686744465 -88.56633933868076 0 255 0 255
-15.547358169684323 -3.88514666272696 -85.2582420414326 0 0 255 255
-12.811963180268503 -2.158577924233512 -88.20726423981444 0 0 255 255
-12.267499161313765 -1.9856954991304185 -89.79460660466309 255 255 0 255
-17.2742166844408 -6.280762596725179 -90.53881690911263 0 255 255 255
-16.83839488977708 -5.389059922119742 -87.68414872730094 255 0 255 255
